<?xml version="1.0" encoding="UTF-8"?>
<svg id="Layer_1" data-name="Layer 1" xmlns="http://www.w3.org/2000/svg" xmlns:xlink="http://www.w3.org/1999/xlink" viewBox="0 0 759.93 143.35">
  <defs>
    <style>
      .cls-1 {
        clip-path: url(#clippath-4);
      }

      .cls-2 {
        stroke-miterlimit: 10;
        stroke-width: .55px;
      }

      .cls-2, .cls-3, .cls-4, .cls-5, .cls-6, .cls-7 {
        fill: none;
      }

      .cls-2, .cls-4, .cls-5, .cls-6, .cls-7 {
        stroke: #fff;
      }

      .cls-8 {
        fill: #fff;
      }

      .cls-4 {
        stroke-miterlimit: 10;
        stroke-width: .55px;
      }

      .cls-5 {
        stroke-miterlimit: 10;
        stroke-width: .55px;
      }

      .cls-9 {
        clip-path: url(#clippath-1);
      }

      .cls-10 {
        isolation: isolate;
      }

      .cls-11 {
        clip-path: url(#clippath-5);
      }

      .cls-12 {
        clip-path: url(#clippath-3);
      }

      .cls-6 {
        stroke-miterlimit: 10;
        stroke-width: .55px;
      }

      .cls-7 {
        stroke-miterlimit: 10;
        stroke-width: .55px;
      }

      .cls-13 {
        fill: #191919;
      }

      .cls-14 {
        opacity: .24;
      }

      .cls-15 {
        fill: #3dcd58;
      }

      .cls-16 {
        clip-path: url(#clippath-2);
      }

      .cls-17 {
        clip-path: url(#clippath);
      }
    </style>
    <clipPath id="clippath">
      <path class="cls-3" d="M714.06,135.77h-358.67c-8.48,0-15.36-8.99-15.36-20.08V27.67c0-11.08,6.87-20.08,14.4-20.08h358.67c23.96,0,42.61,24.38,42.61,54.45v19.28c0,30.07-18.65,54.45-41.65,54.45h0Z"/>
    </clipPath>
    <clipPath id="clippath-1">
      <path class="cls-3" d="M729.28-14.13c.5,1.87-.2,4.08-2.25,6.36-5.1,5.65-16.63,9.64-25.73,8.88-5.43-.45-8.78-2.48-9.52-5.23l41.56,155.4c.74,2.75,4.08,4.78,9.52,5.23,9.12.74,20.63-3.23,25.73-8.88,2.06-2.28,2.75-4.49,2.25-6.36-12.47-46.62-29.1-108.78-41.56-155.4Z"/>
    </clipPath>
    <clipPath id="clippath-2">
      <path class="cls-3" d="M770.85,141.27l-41.56-155.4c-.74-2.75-4.08-4.78-9.52-5.23l41.56,155.4c5.43.45,8.78,2.48,9.52,5.23Z"/>
    </clipPath>
    <clipPath id="clippath-3">
      <path class="cls-3" d="M691.77-4.11l41.56,155.4c-.5-1.87.2-4.08,2.25-6.36,5.1-5.65,16.63-9.64,25.73-8.88l-41.56-155.4c-9.12-.74-20.63,3.23-25.73,8.88-2.06,2.28-2.75,4.49-2.25,6.36Z"/>
    </clipPath>
    <clipPath id="clippath-4">
      <path class="cls-3" d="M815.92,131.41c2.75-3.12,6.26-7.45,8.61-10.91,1.23-1.8,2.81-4.27,3.92-6.15,1.09-1.86,2.48-4.38,3.41-6.32,1.52-3.16,3.5-7.43,4.56-10.77.67-2.1,1.65-4.87,2.2-7.01.78-3.09,1.71-7.24,2.24-10.39.74-4.45,1.06-10.46,1.17-14.96.08-3.09-.14-7.22-.55-10.28-.6-4.46-1.58-10.4-2.74-14.74-1.2-4.47-3.4-10.28-5.17-14.57-1.15-2.78-3.09-6.31-4.56-8.92-1.1-1.97-2.81-4.45-4.01-6.36-1.61-2.55-4.2-5.65-6.13-7.97-2-2.42-4.89-5.48-7.22-7.59-3.22-2.91-7.62-6.67-11.2-9.12-2.75-1.89-6.57-4.21-9.47-5.87-1.8-1.03-4.32-2.2-6.19-3.12-3.44-1.69-8.31-3.36-11.93-4.63-3.62-1.27-8.64-2.42-12.4-3.16-2.77-.55-7.17-1.27-12.45-1.71-9.29-.76-19.1,3.65-28.23,13.76,9.12.74,12.36,5.93,7.26,11.59-5.1,5.65-16.63,9.64-25.73,8.88-9.12-.74-12.36-5.93-7.26-11.59,5.1-5.65,16.63-9.64,25.73-8.88,9.13-10.12,18.95-14.53,28.23-13.76-1.73-.1-4.06-.32-5.8-.34-1.71-.01-3.97-.08-5.66-.06-1.76.03-4.1.13-5.85.22-1.64.08-3.82.25-5.44.45-1.51.18-3.54.42-5.05.63-1.51.22-3.51.55-5.01.83-1.78.34-5.09.96-9.61,2.15-2.84.76-6.57,1.94-9.36,2.85-1.41.46-3.27,1.16-4.66,1.71-1.4.55-3.23,1.33-4.61,1.89-1.43.59-3.3,1.47-4.7,2.15-1.44.7-3.34,1.66-4.75,2.42-1.43.77-3.3,1.86-4.71,2.66-1.54.88-3.54,2.15-5.01,3.15-2.92,2-6.71,4.84-9.5,7.03-1.73,1.37-3.87,3.4-5.52,4.87-1.94,1.75-4.34,4.31-6.11,6.24-1.41,1.54-3.17,3.68-4.47,5.3-2.63,3.29-5.79,7.97-7.94,11.59-1.93,3.26-4.32,7.72-5.71,11.24-1.24,3.16-2.82,7.4-3.87,10.63-.69,2.11-1.34,4.99-1.85,7.15-.71,3.06-1.47,7.2-1.68,10.33-.15,2.25-.48,5.24-.52,7.5-.04,3.05-.07,7.13.24,10.17.24,2.29.5,5.36.89,7.62.52,3.02,1.37,7.02,2.13,10,1.15,4.5,3.31,10.32,5.17,14.57,1.65,3.79,4.24,8.68,6.5,12.14,1.23,1.87,2.88,4.39,4.25,6.17,1.85,2.41,4.39,5.54,6.45,7.76,2.15,2.34,5.17,5.34,7.61,7.4,3.3,2.77,7.93,6.17,11.47,8.63,2.81,1.96,6.88,4.04,9.91,5.62,1.82.95,4.34,2.06,6.24,2.84,1.97.81,4.63,1.87,6.67,2.5,3.64,1.12,8.5,2.64,12.24,3.33,3.69.69,8.64,1.55,12.39,1.9,2.28.21,5.34.41,7.64.5,1.85.07,4.31.11,6.15.04,1.61-.06,3.76-.11,5.36-.21,1.64-.1,3.82-.25,5.44-.45,1.51-.18,3.54-.38,5.05-.63,1.48-.25,3.47-.55,4.95-.83,1.47-.27,3.43-.69,4.88-1.01,1.44-.32,3.36-.77,4.77-1.16,2.82-.8,6.57-1.94,9.36-2.85,1.41-.46,3.27-1.16,4.66-1.71,1.41-.55,3.27-1.3,4.66-1.92,2.82-1.24,6.52-3.08,9.27-4.47,1.48-.76,3.4-1.9,4.85-2.74,1.54-.88,3.52-2.17,5.01-3.15,1.45-.96,3.36-2.35,4.78-3.36,1.69-1.2,3.85-2.96,5.45-4.29,1.47-1.23,3.36-2.96,4.77-4.25,1.94-1.76,4.38-4.28,6.11-6.24v.03h-.01Z"/>
    </clipPath>
    <clipPath id="clippath-5">
      <path class="cls-3" d="M838.72,39.89c-.76-2.98-2.1-6.85-3.16-9.73-.8-2.15-2.04-4.96-3.03-7.05-1.33-2.77-3.33-6.35-4.89-8.98-1.15-1.93-2.91-4.36-4.18-6.22-1.78-2.63-4.59-5.8-6.68-8.19-1.45-1.65-3.59-3.68-5.15-5.23-2.42-2.43-6.01-5.31-8.77-7.36-3.29-2.45-7.89-5.41-11.47-7.38-1.82-1.01-4.29-2.27-6.18-3.15-1.86-.87-4.38-1.99-6.31-2.7-3.62-1.33-8.47-3.05-12.24-3.9-1.87-.42-4.34-1.08-6.24-1.4-1.87-.31-4.36-.77-6.24-1.03-1.86-.25-4.34-.69-6.19-.69,15.24,1.24,29.09,16.4,36.22,43.07,11.48,42.92,1.23,99.37-22.88,126.09,9.12.74,12.36,5.93,7.26,11.59-5.1,5.65-16.63,9.64-25.73,8.88-9.12-.74-12.36-5.93-7.26-11.59,5.1-5.65,16.63-9.63,25.73-8.88,24.11-26.72,34.36-83.18,22.88-126.09-7.13-26.67-20.98-41.83-36.22-43.07-1.89-.15-4.41-.34-6.31-.35-1.69-.01-3.96-.06-5.65-.03-1.66.03-3.89.14-5.55.22-1.59.08-3.72.25-5.3.45-1.51.18-3.54.42-5.05.63-1.5.22-3.48.55-4.96.83-2.89.56-6.74,1.4-9.59,2.15-1.43.38-3.3.91-4.71,1.34-1.4.43-3.26,1.05-4.66,1.51-1.43.46-3.3,1.17-4.68,1.72-1.4.55-3.23,1.33-4.6,1.89-1.47.6-3.37,1.51-4.8,2.2-1.51.73-3.5,1.75-4.96,2.53-1.43.77-3.3,1.87-4.71,2.68-1.44.83-3.27,2.03-4.66,2.94-1.71,1.12-3.93,2.68-5.54,3.93-1.93,1.47-4.46,3.48-6.26,5.09-1.44,1.29-3.38,2.99-4.73,4.38-2.48,2.56-5.69,6.04-8,8.75-2.73,3.2-5.9,7.86-8.12,11.44-1.75,2.81-3.93,6.67-5.24,9.72-.87,2-2.1,4.63-2.85,6.68-1.06,2.91-2.45,6.8-3.17,9.8-.53,2.15-1.26,5.03-1.64,7.22-.52,2.96-1.05,6.92-1.33,9.91-.42,4.52-.36,10.6-.03,15.13.22,3.02.8,7.03,1.3,10.03.39,2.31,1.15,5.33,1.71,7.59,1.01,4.1,3.01,9.38,4.6,13.28.87,2.11,2.2,4.87,3.29,6.88,1.47,2.7,3.65,6.19,5.27,8.81,1.71,2.75,4.39,6.15,6.52,8.6,2.88,3.33,6.92,7.62,10.31,10.43,2.7,2.27,6.43,5.13,9.3,7.17,1.73,1.24,4.2,2.67,6,3.79,1.86,1.15,4.45,2.48,6.4,3.44,1.85.91,4.34,2.04,6.24,2.81,1.87.77,4.41,1.73,6.33,2.36,2.35.77,5.51,1.76,7.91,2.34,1.85.43,4.31,1.06,6.18,1.37,3.69.62,8.64,1.36,12.38,1.69,1.89.17,4.41.34,6.31.35,1.69.01,3.96.06,5.65.03,1.66-.03,3.89-.14,5.55-.22,1.59-.08,3.72-.25,5.3-.45,1.51-.18,3.54-.42,5.05-.63,1.5-.22,3.48-.53,4.96-.83,1.45-.29,3.38-.67,4.82-.99,1.44-.32,3.34-.8,4.77-1.16,2.84-.76,6.57-1.93,9.36-2.85,1.43-.46,3.3-1.17,4.68-1.72,1.4-.55,3.23-1.33,4.6-1.89,1.47-.6,3.37-1.5,4.8-2.2,1.5-.74,3.5-1.75,4.96-2.53,1.43-.77,3.3-1.87,4.71-2.68,1.68-.96,3.85-2.36,5.43-3.45,2.92-2.03,6.71-4.89,9.47-7.13,1.99-1.62,4.43-4,6.32-5.73,1.51-1.4,3.37-3.43,4.74-4.95,1.38-1.55,3.15-3.68,4.45-5.3,1.31-1.64,2.99-3.87,4.13-5.64,1.87-2.87,4.24-6.77,5.9-9.76,2.1-3.8,4.29-9.19,5.83-13.26,1.12-2.95,2.36-7.01,2.99-10.11.59-2.95,1.38-6.91,1.82-9.89.32-2.22.56-5.22.67-7.47.22-4.41.1-10.32-.36-14.7-.49-4.61-1.66-10.71-2.8-15.21h0Z"/>
    </clipPath>
  </defs>
  <g>
    <path class="cls-13" d="M70.22,88.26c0,5.02-1.29,9.53-3.88,13.54-2.59,4-6.37,7.14-11.36,9.4-4.99,2.26-10.89,3.4-17.73,3.4-8.19,0-14.95-1.55-20.28-4.64-3.78-2.23-6.84-5.2-9.2-8.92s-3.54-7.33-3.54-10.85c0-2.04.71-3.78,2.12-5.24,1.42-1.45,3.22-2.18,5.41-2.18,1.77,0,3.27.57,4.5,1.7s2.27,2.81,3.14,5.04c1.06,2.64,2.2,4.85,3.43,6.63s2.95,3.24,5.18,4.39,5.15,1.73,8.78,1.73c4.98,0,9.03-1.16,12.15-3.48s4.67-5.22,4.67-8.69c0-2.76-.84-4.99-2.52-6.71s-3.85-3.03-6.51-3.94-6.22-1.87-10.68-2.89c-5.97-1.4-10.96-3.03-14.98-4.9s-7.21-4.42-9.57-7.65c-2.36-3.23-3.54-7.24-3.54-12.03s1.25-8.63,3.74-12.18,6.1-6.28,10.82-8.18c4.72-1.91,10.27-2.86,16.65-2.86,5.1,0,9.5.63,13.22,1.9s6.8,2.94,9.26,5.04c2.45,2.1,4.25,4.3,5.38,6.6s1.7,4.55,1.7,6.74c0,2-.71,3.8-2.12,5.41-1.42,1.61-3.18,2.41-5.3,2.41-1.93,0-3.39-.48-4.39-1.44s-2.09-2.54-3.26-4.73c-1.51-3.13-3.32-5.58-5.44-7.33-2.12-1.76-5.51-2.63-10.19-2.63-4.34,0-7.84.95-10.51,2.86-2.66,1.91-3.99,4.2-3.99,6.88,0,1.66.45,3.1,1.36,4.3.91,1.21,2.15,2.25,3.74,3.11,1.59.87,3.19,1.55,4.81,2.04s4.3,1.21,8.04,2.15c4.68,1.1,8.92,2.3,12.71,3.62s7.02,2.93,9.68,4.81c2.66,1.89,4.74,4.28,6.23,7.16,1.49,2.89,2.24,6.43,2.24,10.62h.03Z"/>
    <path class="cls-13" d="M139.2,43.12h-37.89v20.39h34.89c2.57,0,4.48.58,5.75,1.73,1.26,1.15,1.9,2.67,1.9,4.56s-.62,3.43-1.87,4.62-3.17,1.78-5.78,1.78h-34.89v23.62h39.19c2.64,0,4.63.61,5.97,1.84,1.34,1.23,2.01,2.86,2.01,4.9s-.67,3.56-2.01,4.79-3.33,1.84-5.97,1.84h-45.7c-3.66,0-6.3-.81-7.9-2.44-1.61-1.62-2.41-4.25-2.41-7.87v-62.41c0-2.42.36-4.39,1.08-5.92.72-1.53,1.84-2.64,3.37-3.34,1.53-.7,3.48-1.05,5.86-1.05h44.4c2.68,0,4.67.59,5.97,1.78s1.95,2.75,1.95,4.67-.65,3.54-1.95,4.73-3.29,1.78-5.97,1.78h0Z"/>
    <path class="cls-13" d="M189.88,100.66l-13.31-52.9v57.31c0,3.17-.71,5.55-2.12,7.14s-3.29,2.38-5.64,2.38-4.12-.78-5.55-2.35c-1.44-1.57-2.15-3.95-2.15-7.16V39.38c0-3.62.94-6.07,2.83-7.33s4.44-1.9,7.65-1.9h5.21c3.13,0,5.41.28,6.82.85s2.46,1.59,3.14,3.06,1.45,3.87,2.32,7.19l12.06,45.48,12.06-45.48c.87-3.32,1.64-5.72,2.32-7.19s1.73-2.49,3.14-3.06,3.69-.85,6.82-.85h5.21c3.21,0,5.76.63,7.65,1.9,1.89,1.27,2.83,3.71,2.83,7.33v65.7c0,3.17-.71,5.55-2.12,7.14s-3.31,2.38-5.69,2.38c-2.23,0-4.06-.79-5.49-2.38-1.44-1.59-2.15-3.96-2.15-7.14v-57.31l-13.31,52.9c-.87,3.44-1.58,5.96-2.12,7.56-.55,1.61-1.56,3.07-3.03,4.39s-3.51,1.98-6.12,1.98c-1.96,0-3.62-.42-4.98-1.27s-2.42-1.93-3.17-3.26c-.76-1.32-1.35-2.78-1.78-4.39-.43-1.6-.88-3.27-1.33-5.01h0Z"/>
    <path class="cls-13" d="M293.92,113.18h-25.37c-3.66,0-6.28-.82-7.84-2.46-1.57-1.64-2.35-4.26-2.35-7.84v-62.41c0-3.66.8-6.29,2.41-7.9,1.61-1.61,4.2-2.41,7.79-2.41h26.9c3.96,0,7.4.25,10.31.74s5.51,1.44,7.82,2.83c1.96,1.17,3.7,2.65,5.21,4.45,1.51,1.79,2.66,3.78,3.45,5.95.79,2.17,1.19,4.47,1.19,6.88,0,8.31-4.15,14.39-12.46,18.24,10.91,3.47,16.37,10.23,16.37,20.28,0,4.64-1.19,8.83-3.57,12.54-2.38,3.72-5.59,6.47-9.63,8.24-2.53,1.06-5.44,1.8-8.72,2.24-3.28.43-7.12.65-11.5.65v-.02s-.01,0-.01,0ZM275.17,42.78v21.46h15.4c4.19,0,7.43-.4,9.71-1.19s4.03-2.3,5.24-4.53c.94-1.59,1.42-3.36,1.42-5.32,0-4.19-1.49-6.97-4.47-8.35s-7.53-2.07-13.65-2.07h-13.65ZM292.67,76.31h-17.5v24.24h18.07c11.36,0,17.05-4.1,17.05-12.29,0-4.19-1.47-7.23-4.42-9.12-2.94-1.89-7.34-2.83-13.2-2.83h0Z"/>
  </g>
  <g>
    <path class="cls-15" d="M714.06,135.77h-356.25c-8.48,0-17.78-8.99-17.78-20.08V27.66c0-11.08,10.25-20.08,17.78-20.08h355.29c23.96,0,42.61,24.38,42.61,54.45v19.28c0,30.07-18.65,54.45-41.65,54.45h0Z"/>
    <g class="cls-17">
      <g class="cls-14">
        <g class="cls-10">
          <g class="cls-10">
            <g class="cls-9">
              <g>
                <g class="cls-10">
                  <g>
                    <path class="cls-7" d="M765.69,136.88c-1.27-.41-2.73-.69-4.36-.83h-.01l-41.57-155.42v-.03h.03c4.92.41,8.33,2.13,9.37,4.74.81,2.04.07,4.49-2.08,6.88l38.68,144.61c2.55.83,4.28,2.17,4.98,3.92.81,2.04.07,4.49-2.1,6.88l-.03.03-2.88-10.8h-.01ZM768.6,147.58c2.13-2.38,2.85-4.78,2.06-6.8-.69-1.72-2.41-3.05-4.91-3.87l2.85,10.67h0ZM761.34,136.01c1.62.14,3.06.41,4.34.81L727-7.77h0v-.03c2.15-2.38,2.89-4.81,2.08-6.84-1.02-2.59-4.42-4.31-9.3-4.71l41.56,155.35h0Z"/>
                    <rect class="cls-4" x="750.19" y="-15.86" width=".04" height="160.86" transform="translate(8.76 195.85) rotate(-14.96)"/>
                  </g>
                  <g>
                    <path class="cls-7" d="M742.85,156.54h-.01L701.27,1.12v-.03h.03c9.09.74,20.63-3.24,25.72-8.88l.03-.03,41.57,155.45h0v.03c-4.68,5.19-14.82,8.98-23.51,8.98-.77,0-1.51-.03-2.25-.08h0ZM727.01-7.73c-5.1,5.62-16.61,9.59-25.69,8.87l41.56,155.35c9.08.74,20.6-3.24,25.69-8.87L727.02-7.73h-.01Z"/>
                    <rect class="cls-6" x="740.88" y="-5.46" width=".04" height="160.86" transform="translate(5.8 194.06) rotate(-14.98)"/>
                    <rect class="cls-2" x="731.64" y="-2.31" width=".04" height="160.86" transform="translate(4.55 191.01) rotate(-14.92)"/>
                  </g>
                  <g>
                    <path class="cls-7" d="M742.85,156.54c-4.92-.41-8.33-2.13-9.37-4.74-.81-2.04-.07-4.49,2.08-6.88L696.89.31c-2.55-.83-4.28-2.17-4.98-3.92-.81-2.04-.07-4.49,2.1-6.88l.03-.03,2.88,10.8c1.27.41,2.73.69,4.36.83h.01l41.57,155.42v.03h-.03.01ZM696.95.33l38.68,144.59h0v.03c-2.15,2.38-2.89,4.81-2.08,6.84,1.02,2.59,4.42,4.31,9.3,4.71L701.28,1.15c-1.62-.14-3.06-.41-4.34-.81h0ZM691.95-3.62c.69,1.72,2.41,3.05,4.91,3.87l-2.85-10.67c-2.13,2.38-2.85,4.78-2.06,6.8h0Z"/>
                    <rect class="cls-5" x="714.99" y="-3.68" width=".04" height="160.86" transform="translate(4.4 187.05) rotate(-14.95)"/>
                  </g>
                </g>
                <path class="cls-7" d="M742.85,156.54c-2.66-.22-4.85-.81-6.53-1.75-1.59-.89-2.64-2.11-3.01-3.5L691.76-4.11h.04c.36,1.36,1.4,2.56,2.99,3.45,1.66.94,3.86,1.52,6.52,1.75,9.09.74,20.63-3.24,25.72-8.88,1.99-2.21,2.77-4.4,2.25-6.33h.04l41.56,155.39c.52,1.96-.27,4.17-2.27,6.38-4.68,5.19-14.82,8.98-23.51,8.98-.77,0-1.51-.03-2.25-.08h0ZM727.04-7.75c-4.68,5.19-14.82,8.98-23.51,8.98-.77,0-1.51-.03-2.25-.08-2.66-.22-4.85-.81-6.53-1.75-1.36-.77-2.31-1.75-2.8-2.87l41.39,154.76c.36,1.37,1.4,2.57,2.99,3.47,1.66.94,3.86,1.52,6.52,1.75,9.09.74,20.63-3.24,25.72-8.88,1.99-2.21,2.77-4.4,2.25-6.33l-41.39-154.75c.21,1.79-.6,3.75-2.39,5.72h0Z"/>
              </g>
            </g>
            <path class="cls-7" d="M729.28-14.13c.5,1.87-.2,4.08-2.25,6.36-5.1,5.65-16.63,9.63-25.73,8.88-5.43-.45-8.78-2.48-9.52-5.23l41.56,155.4c.74,2.75,4.08,4.78,9.52,5.23,9.12.74,20.63-3.23,25.73-8.88,2.06-2.28,2.75-4.49,2.25-6.36-12.47-46.62-29.1-108.78-41.56-155.4Z"/>
          </g>
          <g class="cls-10">
            <g class="cls-16">
              <g>
                <g class="cls-10">
                  <path class="cls-7" d="M765.69,136.88c-1.27-.41-2.73-.69-4.36-.83h-.01l-41.57-155.42v-.03h.03c4.92.41,8.33,2.13,9.37,4.74.81,2.04.07,4.49-2.08,6.88l38.68,144.61c2.55.83,4.28,2.17,4.98,3.92.81,2.04.07,4.49-2.1,6.88l-.03.03-2.88-10.8h-.01ZM768.6,147.58c2.13-2.38,2.85-4.78,2.06-6.8-.69-1.72-2.41-3.05-4.91-3.87l2.85,10.67h0ZM761.34,136.01c1.62.14,3.06.41,4.34.81L727-7.77h0v-.03c2.15-2.38,2.89-4.81,2.08-6.84-1.02-2.59-4.42-4.31-9.3-4.71l41.56,155.35h0Z"/>
                  <rect class="cls-6" x="747.58" y="-19.94" width=".04" height="160.86" transform="translate(9.77 195.3) rotate(-14.98)"/>
                </g>
                <path class="cls-7" d="M767.83,137.8c-1.66-.94-3.86-1.52-6.52-1.75h-.01l-41.57-155.42v-.03h.03c2.66.22,4.85.81,6.53,1.75,1.59.89,2.64,2.11,3.01,3.5l41.56,155.4h-.04c-.36-1.36-1.4-2.56-2.99-3.45h.01ZM761.34,136.01c2.66.22,4.84.81,6.52,1.75,1.36.77,2.31,1.75,2.8,2.87l-41.39-154.76c-.36-1.37-1.4-2.57-2.99-3.47-1.66-.94-3.83-1.52-6.47-1.73l41.56,155.35h-.01Z"/>
              </g>
            </g>
            <path class="cls-7" d="M770.85,141.27l-41.56-155.4c-.74-2.75-4.08-4.78-9.52-5.23l41.56,155.4c5.43.45,8.78,2.48,9.52,5.23Z"/>
          </g>
          <g class="cls-10">
            <g class="cls-12">
              <g>
                <g class="cls-10">
                  <g>
                    <path class="cls-7" d="M742.85,156.54c-4.92-.41-8.33-2.13-9.37-4.74-.81-2.04-.07-4.49,2.08-6.88L696.89.31c-2.55-.83-4.28-2.17-4.98-3.92-.81-2.04-.07-4.49,2.1-6.88l.03-.03,2.88,10.8c1.27.41,2.73.69,4.36.83h.01l41.57,155.42v.03h-.03.01ZM696.95.33l38.68,144.59h0v.03c-2.15,2.38-2.89,4.81-2.08,6.84,1.02,2.59,4.42,4.31,9.3,4.71L701.28,1.15c-1.62-.14-3.06-.41-4.34-.81h0ZM691.95-3.62c.69,1.72,2.41,3.05,4.91,3.87l-2.85-10.67c-2.13,2.38-2.85,4.78-2.06,6.8h0Z"/>
                    <rect class="cls-4" x="712.37" y="-7.86" width=".04" height="160.86" transform="translate(5.41 186.36) rotate(-14.96)"/>
                  </g>
                  <g>
                    <path class="cls-7" d="M694.01-10.47h0v-.03c5.1-5.65,16.65-9.63,25.76-8.89h.01l41.57,155.42v.03h-.03c-9.09-.74-20.63,3.24-25.72,8.88l-.03.03-41.57-155.45h0ZM761.3,136.01l-41.56-155.35c-9.08-.74-20.6,3.24-25.69,8.87l41.55,155.35c4.7-5.17,14.81-8.95,23.48-8.95.76,0,1.5.03,2.22.08h0Z"/>
                    <rect class="cls-4" x="721.68" y="-18.19" width=".04" height="160.86" transform="translate(8.39 188.41) rotate(-14.96)"/>
                    <rect class="cls-5" x="730.93" y="-21.34" width=".04" height="160.86" transform="translate(9.5 190.57) rotate(-14.95)"/>
                  </g>
                </g>
                <path class="cls-7" d="M691.74-4.11h.03-.03c-.52-1.96.27-4.17,2.27-6.38,5.1-5.65,16.65-9.63,25.76-8.89h.01l41.57,155.42v.03h-.03c-9.09-.74-20.63,3.24-25.72,8.88-1.99,2.21-2.77,4.4-2.25,6.33h-.04L691.76-4.11h-.01ZM761.3,136.01l-41.56-155.35c-9.09-.74-20.61,3.24-25.7,8.88-1.99,2.21-2.77,4.4-2.25,6.33l41.39,154.75c-.21-1.79.6-3.75,2.39-5.72,4.68-5.19,14.82-8.98,23.51-8.98.76,0,1.5.03,2.22.08h0Z"/>
              </g>
            </g>
            <path class="cls-7" d="M691.77-4.11l41.56,155.4c-.5-1.87.2-4.08,2.25-6.36,5.1-5.65,16.63-9.63,25.73-8.88l-41.56-155.4c-9.12-.74-20.63,3.23-25.73,8.88-2.06,2.28-2.75,4.49-2.25,6.36Z"/>
          </g>
          <g class="cls-10">
            <g class="cls-1">
              <g>
                <g class="cls-10">
                  <g>
                    <path class="cls-7" d="M710.75,169.69c-3.43-.83-6.75-2.38-9.91-4.6-3.19-2.24-6.19-5.17-8.95-8.73-2.81-3.61-5.37-7.89-7.61-12.68-2.31-4.94-4.28-10.47-5.89-16.46v-.03h.03c52.09,4.27,118.19-18.56,147.36-50.89l.03-.03v.04c2.87,10.68,3.5,20.85,1.89,30.23-.77,4.5-2.07,8.8-3.86,12.77-1.78,3.93-4.04,7.55-6.74,10.78-2.6,3.12-5.64,5.9-8.99,8.25-3.4,2.38-7.17,4.35-11.23,5.86-8.42,3.13-17.93,4.29-28.28,3.45-5.1,5.65-16.64,9.62-25.73,8.88-5.09,5.64-10.49,9.62-16.05,11.83-3.38,1.34-6.77,2.01-10.12,2.01-1.99,0-3.97-.24-5.93-.71h-.01ZM742.85,156.49c9.09.74,20.63-3.24,25.72-8.88h0c20.42,1.68,37.63-4.56,48.47-17.54,11.27-13.49,14.36-32.57,8.73-53.7-7.15,7.9-16.56,15.37-28,22.18-11.06,6.59-23.54,12.31-37.07,16.98-13.54,4.67-27.45,8.07-41.38,10.11-14.39,2.1-28.16,2.64-40.9,1.59,3.19,11.9,7.72,21.69,13.48,29.09,5.48,7.06,12,11.66,18.85,13.31,10.71,2.57,22.11-2.08,32.08-13.13h.03Z"/>
                    <path class="cls-7" d="M725.65,170.67c5.3,0,10.82-.42,16.53-1.24,8.22-1.2,16.46-3.22,24.46-5.97,8-2.77,15.38-6.14,21.91-10.04,6.77-4.04,12.35-8.46,16.57-13.13l-.04-.03c-17.24,19.1-56.31,32.6-87.11,30.08v.04c2.49.21,5.05.31,7.68.31h0Z"/>
                    <path class="cls-7" d="M706.37,160.3c7.96,0,16.25-.63,24.81-1.87,12.35-1.8,24.7-4.82,36.71-8.96,12.01-4.15,23.07-9.22,32.89-15.06,10.17-6.06,18.53-12.68,24.86-19.72l-.04-.03c-25.87,28.68-84.53,48.93-130.75,45.15v.04c3.73.31,7.58.46,11.51.46h.01Z"/>
                    <path class="cls-7" d="M750.49,167.94h.13c.74-.11,1.27-1.17,1.58-3.16.32-2.04.41-5.05.27-8.96h-.04c.28,7.68-.34,11.86-1.8,12.08h-.13c-1.51,0-3.83-3.89-6.71-11.29-3.06-7.85-6.67-19.42-10.43-33.49h-.04c3.76,14.08,7.37,25.67,10.43,33.51,2.89,7.41,5.23,11.31,6.77,11.31h-.01Z"/>
                  </g>
                  <g>
                    <path class="cls-7" d="M710.75,169.69c-3.43-.83-6.75-2.38-9.91-4.6-3.19-2.24-6.19-5.17-8.95-8.73-2.81-3.61-5.37-7.89-7.61-12.68-2.29-4.94-4.28-10.46-5.87-16.45-7.16-.59-13.84-1.68-19.87-3.23-5.87-1.51-11.16-3.47-15.72-5.85-4.47-2.32-8.29-5.03-11.31-8.08-3.01-3.02-5.24-6.36-6.67-9.94-2.27-5.73-2.45-11.97-.52-18.54,2-6.81,6.21-13.79,12.5-20.78l.03-.03v.04c11.47,42.83,55.77,80.55,98.76,84.07h.04l-.03.04c-2.15,2.38-2.89,4.81-2.08,6.84,1.03,2.59,4.43,4.31,9.33,4.71h.04l-.03.04c-5.09,5.65-10.5,9.63-16.07,11.84-3.38,1.34-6.77,2.01-10.12,2.01-1.99,0-3.97-.24-5.93-.71h0ZM733.47,151.8c-.81-2.03-.07-4.46,2.07-6.85-10.52-.87-21.27-3.76-31.95-8.59-5.15-2.32-10.25-5.1-15.17-8.25-4.88-3.12-9.61-6.63-14.08-10.43-9.08-7.72-16.92-16.5-23.33-26.07-6.61-9.9-11.4-20.23-14.21-30.71-12.32,13.66-16.56,27.6-11.94,39.24,5.9,14.89,25.42,24.75,53.54,27.06h.01c3.19,11.93,7.72,21.73,13.48,29.14,5.48,7.06,12,11.66,18.85,13.31,10.7,2.57,22.08-2.07,32.04-13.1-4.89-.41-8.29-2.14-9.33-4.74h.01Z"/>
                    <path class="cls-7" d="M717.98,170.36v-.04c-16.61-1.36-28.15-7.19-31.65-16-2.73-6.88-.21-15.12,7.08-23.2l-.04-.03c-3.72,4.13-6.21,8.26-7.4,12.29-1.15,3.89-1.03,7.58.31,10.96,3.5,8.82,15.05,14.66,31.69,16.03h.01Z"/>
                    <path class="cls-7" d="M694.86,159.84v-.04c-24.95-2.04-42.26-10.8-47.5-24.01-4.1-10.33-.32-22.7,10.63-34.83l-.04-.03c-5.59,6.19-9.31,12.39-11.09,18.43-1.72,5.83-1.57,11.37.46,16.46,5.24,13.23,22.58,22,47.55,24.04h0Z"/>
                    <path class="cls-7" d="M699.43,163.52c1.1,0,2.22-.03,3.34-.08,5.4-.25,10.89-1.13,16.35-2.6,5.59-1.51,11.22-3.66,16.67-6.39l-.03-.04c-21.27,10.64-44.22,11.93-62.93,3.5-17.21-7.75-29.6-22.88-34.88-42.62h-.04c5.29,19.77,17.68,34.92,34.9,42.67,4.53,2.04,9.37,3.54,14.36,4.46,3.99.73,8.08,1.1,12.24,1.1h.01Z"/>
                    <path class="cls-7" d="M711.4,152.6c7.29,0,14.57-.77,21.79-2.29v-.04c-7.29,1.54-14.57,2.28-21.73,2.28-41.32,0-78.65-24.54-88.41-61.05h-.04c2.81,10.5,7.89,20.18,15.12,28.78,3.47,4.13,7.44,7.98,11.77,11.45,4.29,3.44,9.01,6.53,14,9.19s10.29,4.91,15.77,6.68c5.52,1.79,11.29,3.13,17.1,3.96,4.87.69,9.76,1.03,14.64,1.03h-.01,0Z"/>
                  </g>
                  <g>
                    <path class="cls-7" d="M735.6,144.95c-10.53-.87-21.3-3.75-32-8.6-5.15-2.32-10.25-5.1-15.17-8.25-4.88-3.12-9.61-6.63-14.08-10.43-9.08-7.72-16.92-16.5-23.33-26.07-6.63-9.91-11.41-20.26-14.22-30.75h0v-.03c7.15-7.91,16.57-15.4,28.02-22.22,11.06-6.59,23.54-12.31,37.07-16.98,13.54-4.67,27.45-8.07,41.38-10.11,14.4-2.1,28.18-2.64,40.95-1.59h.01c2.81,10.5,4.38,21.97,4.66,34.07.28,11.69-.64,23.49-2.75,35.07-2.1,11.58-5.27,22.36-9.43,32.04-4.31,10.03-9.47,18.42-15.37,24.95h0c-9.09-.74-20.63,3.24-25.72,8.88h0l-.03.03h0ZM761.31,136.01c11.65-12.92,20.46-33.16,24.77-56.96,4.32-23.8,3.65-48.34-1.9-69.1-52.08-4.25-118.16,18.56-147.34,50.87,11.47,42.82,55.75,80.52,98.73,84.06,4.68-5.19,14.82-8.98,23.49-8.98.76,0,1.51.03,2.24.08h.01Z"/>
                    <path class="cls-7" d="M693.41,131.11c17.24-19.1,56.31-32.6,87.11-30.08v-.04c-7.54-.62-15.68-.29-24.21.94-8.22,1.2-16.46,3.22-24.46,5.97-8,2.77-15.38,6.14-21.91,10.04-6.77,4.04-12.35,8.46-16.57,13.13l.04.03h0Z"/>
                    <path class="cls-7" d="M657.99,100.94c25.87-28.68,84.53-48.93,130.75-45.15v-.04c-11.31-.92-23.54-.45-36.32,1.41-12.35,1.8-24.7,4.82-36.71,8.96-12.01,4.15-23.07,9.22-32.89,15.06-10.17,6.06-18.53,12.68-24.86,19.72l.04.03h-.01Z"/>
                    <path class="cls-7" d="M742.49,139.96l.03-.04c-12.1-8-25.63-23.59-38.11-43.92-12.47-20.33-22.42-42.96-27.97-63.71h-.04c2.81,10.5,6.73,21.47,11.65,32.61,4.75,10.77,10.25,21.23,16.32,31.11,6.07,9.89,12.42,18.7,18.85,26.18,6.67,7.75,13.16,13.72,19.27,17.76h0Z"/>
                    <path class="cls-7" d="M751.72,136.76h.04c-.91-24.82-10.98-79.88-22.44-122.71h-.04c11.45,42.86,21.52,97.9,22.44,122.71Z"/>
                  </g>
                  <g>
                    <path class="cls-7" d="M825.77,76.32c-11.45-42.83-55.75-80.55-98.74-84.07h-.04l.03-.04c2.15-2.38,2.89-4.81,2.08-6.84-1.03-2.59-4.43-4.31-9.33-4.71h-.04l.03-.04c5.09-5.65,10.5-9.63,16.07-11.84,5.38-2.14,10.78-2.57,16.05-1.31,3.43.83,6.75,2.38,9.91,4.6,3.19,2.24,6.19,5.17,8.95,8.73,2.81,3.61,5.37,7.89,7.61,12.68,2.29,4.94,4.28,10.46,5.87,16.45,7.16.59,13.84,1.68,19.87,3.23,5.87,1.51,11.16,3.47,15.72,5.85,4.47,2.32,8.29,5.03,11.31,8.08,3.01,3.02,5.24,6.36,6.67,9.94,2.27,5.73,2.45,11.97.52,18.54-2,6.81-6.21,13.79-12.5,20.78l-.03.03v-.04h-.01ZM719.81-19.38c4.89.41,8.29,2.14,9.33,4.74.81,2.03.07,4.46-2.07,6.85,10.52.87,21.27,3.76,31.95,8.59,5.15,2.32,10.25,5.1,15.17,8.25,4.88,3.12,9.61,6.63,14.08,10.43,9.08,7.72,16.92,16.5,23.33,26.07,6.63,9.9,11.4,20.23,14.21,30.71,12.32-13.66,16.56-27.6,11.94-39.24-5.9-14.89-25.42-24.75-53.54-27.06h-.01c-3.19-11.93-7.72-21.73-13.48-29.14-5.48-7.06-12-11.66-18.85-13.31-1.93-.46-3.87-.7-5.83-.7-8.92,0-18.04,4.75-26.21,13.79v.03h-.01Z"/>
                    <path class="cls-7" d="M769.24,6.08c3.72-4.13,6.21-8.26,7.4-12.29,1.15-3.89,1.03-7.58-.31-10.96-3.5-8.82-15.05-14.66-31.69-16.03v.04c16.61,1.36,28.15,7.19,31.65,16,2.73,6.88.21,15.12-7.08,23.2l.04.03h-.01Z"/>
                    <path class="cls-7" d="M824.65,21.86h.04c-5.29-19.77-17.68-34.92-34.9-42.67-4.53-2.04-9.37-3.54-14.36-4.46-5.03-.92-10.28-1.27-15.58-1.02-5.4.25-10.89,1.13-16.35,2.6-5.59,1.51-11.22,3.66-16.67,6.39l.03.04c21.27-10.64,44.22-11.93,62.93-3.5,17.21,7.75,29.6,22.88,34.88,42.62h-.01Z"/>
                    <path class="cls-7" d="M839.57,45.68h.04c-2.81-10.5-7.89-20.18-15.12-28.78-3.47-4.13-7.44-7.98-11.77-11.45-4.29-3.44-9.01-6.53-14-9.19s-10.29-4.91-15.77-6.68c-5.52-1.79-11.29-3.13-17.1-3.96-12.11-1.72-24.36-1.3-36.43,1.26v.04c7.29-1.54,14.57-2.28,21.73-2.28,41.32,0,78.65,24.54,88.41,61.05h.01Z"/>
                  </g>
                  <g>
                    <path class="cls-7" d="M678.4,127.23h-.01c-2.81-10.5-4.38-21.97-4.66-34.07-.28-11.69.64-23.49,2.75-35.07,2.1-11.58,5.27-22.36,9.43-32.04,4.31-10.03,9.47-18.42,15.37-24.95h0c9.09.74,20.63-3.24,25.72-8.88h0c10.53.87,21.3,3.75,32,8.6,5.15,2.32,10.25,5.1,15.17,8.25,4.88,3.12,9.61,6.63,14.08,10.43,9.08,7.72,16.92,16.5,23.33,26.07,6.63,9.91,11.41,20.26,14.22,30.75h0v.03c-7.15,7.91-16.57,15.4-28.02,22.22-11.06,6.59-23.54,12.31-37.07,16.98-13.54,4.67-27.45,8.07-41.38,10.11-9.65,1.41-19,2.11-27.95,2.11-4.43,0-8.75-.17-12.98-.52v-.03h.01ZM727.02-7.74c-5.1,5.65-16.64,9.62-25.73,8.88-11.65,12.92-20.46,33.16-24.77,56.96-4.32,23.8-3.65,48.34,1.9,69.1,52.08,4.27,118.16-18.56,147.34-50.87-11.47-42.82-55.75-80.52-98.73-84.06h-.01Z"/>
                    <path class="cls-7" d="M685.39,81.87c7.96,0,16.25-.63,24.81-1.87,12.35-1.8,24.7-4.82,36.71-8.96,12.01-4.15,23.07-9.22,32.89-15.06,10.17-6.06,18.53-12.68,24.86-19.72l-.04-.03c-25.87,28.68-84.53,48.93-130.75,45.15v.04c3.73.31,7.58.46,11.51.46h.01Z"/>
                    <path class="cls-7" d="M689.76,36.48c5.3,0,10.82-.42,16.53-1.24,8.22-1.2,16.46-3.22,24.46-5.97,8-2.77,15.38-6.14,21.91-10.04,6.77-4.04,12.35-8.46,16.57-13.13l-.04-.03c-17.24,19.1-56.31,32.6-87.11,30.08v.04c2.49.21,5.05.31,7.68.31h0Z"/>
                    <path class="cls-7" d="M786.16,104.86h.04c-2.81-10.5-6.73-21.47-11.65-32.61-4.75-10.77-10.25-21.23-16.32-31.11-6.07-9.89-12.42-18.7-18.85-26.18-6.67-7.75-13.16-13.72-19.27-17.76l-.03.04c12.1,8,25.63,23.59,38.11,43.92,12.47,20.33,22.42,42.96,27.97,63.71h0Z"/>
                    <path class="cls-7" d="M733.29,123.12h.04c-11.45-42.86-21.52-97.9-22.44-122.71h-.04c.91,24.82,10.98,79.88,22.44,122.71Z"/>
                  </g>
                  <g>
                    <path class="cls-7" d="M678.4,127.23c-7.17-.59-13.86-1.68-19.89-3.23-5.87-1.51-11.16-3.47-15.72-5.85-4.47-2.32-8.29-5.03-11.31-8.08-3.01-3.02-5.24-6.36-6.67-9.94-2.27-5.73-2.45-11.97-.52-18.54,2-6.8,6.19-13.79,12.49-20.77-2.85-10.68-3.48-20.85-1.87-30.22.77-4.5,2.07-8.8,3.86-12.77,1.78-3.93,4.04-7.55,6.74-10.78,2.6-3.12,5.64-5.9,8.99-8.25,3.4-2.38,7.17-4.35,11.23-5.86,8.42-3.13,17.94-4.29,28.28-3.45h.04l-.03.04c-2.15,2.38-2.89,4.81-2.08,6.84,1.03,2.59,4.43,4.31,9.33,4.71h.04l-.03.04c-11.66,12.92-20.46,33.16-24.78,56.97-4.32,23.81-3.65,48.36,1.9,69.11v.03h-.03.03ZM691.91-3.6c-.81-2.03-.07-4.46,2.07-6.85-20.39-1.66-37.59,4.57-48.41,17.55-11.27,13.51-14.36,32.6-8.71,53.74h0v.03c-12.35,13.68-16.6,27.62-11.98,39.27,5.9,14.89,25.41,24.75,53.52,27.06-2.8-10.49-4.36-21.93-4.66-34.02-.28-11.69.64-23.49,2.75-35.07,2.1-11.58,5.27-22.36,9.43-32.04,4.29-10,9.45-18.39,15.33-24.92-4.89-.41-8.29-2.14-9.33-4.74Z"/>
                    <path class="cls-7" d="M673.87,81.41v-.04c-24.95-2.04-42.26-10.8-47.5-24.01-4.1-10.33-.32-22.7,10.63-34.83l-.04-.03c-5.59,6.19-9.31,12.39-11.09,18.43-1.72,5.83-1.57,11.37.46,16.46,5.24,13.23,22.58,22,47.55,24.04h0Z"/>
                    <path class="cls-7" d="M682.08,36.17v-.04c-16.61-1.36-28.15-7.19-31.65-16-2.73-6.88-.21-15.12,7.08-23.2l-.04-.03c-3.72,4.13-6.21,8.26-7.4,12.29-1.15,3.89-1.03,7.58.31,10.96,3.5,8.82,15.05,14.66,31.69,16.03h.01Z"/>
                    <path class="cls-7" d="M637.92,115.3h.04c-11.45-42.85,13.79-94.99,56.27-116.25l-.03-.04c-10.4,5.2-19.96,12.32-28.37,21.12-4.04,4.24-7.8,8.85-11.17,13.72-3.34,4.82-6.32,9.94-8.87,15.2s-4.68,10.71-6.33,16.21c-1.68,5.55-2.88,11.19-3.58,16.75-1.45,11.59-.77,22.79,2.03,33.28h.01Z"/>
                    <path class="cls-7" d="M623,91.49h.04c-5.06-18.92-2.03-38.82,8.54-56.03,12.49-20.35,34.37-35.13,60.03-40.57v-.04c-6.57,1.38-12.96,3.4-18.98,5.97-5.86,2.5-11.44,5.55-16.57,9.08-5.03,3.47-9.69,7.4-13.82,11.7-4.1,4.27-7.71,8.92-10.71,13.83-5.17,8.43-8.57,17.48-10.07,26.88-1.57,9.73-1.05,19.55,1.52,29.17h0Z"/>
                  </g>
                  <g>
                    <path class="cls-7" d="M636.8,60.85c-2.85-10.68-3.5-20.85-1.87-30.23.77-4.5,2.07-8.8,3.86-12.77,1.78-3.93,4.04-7.55,6.74-10.78,2.6-3.12,5.64-5.9,8.99-8.25,3.4-2.38,7.17-4.35,11.23-5.86,8.42-3.13,17.93-4.29,28.28-3.45,5.1-5.65,16.64-9.62,25.73-8.88,5.09-5.64,10.49-9.62,16.05-11.83,5.38-2.14,10.78-2.57,16.05-1.31,3.43.83,6.75,2.38,9.91,4.6,3.19,2.24,6.19,5.17,8.95,8.73,2.81,3.61,5.37,7.89,7.61,12.68,2.31,4.94,4.28,10.47,5.89,16.46v.03h-.03c-4.21-.35-8.52-.52-12.88-.52-49.66,0-107.68,21.69-134.48,51.39l-.03.03v-.04h0ZM784.18,9.92c-3.19-11.9-7.72-21.69-13.48-29.09-5.48-7.06-12-11.66-18.85-13.31-10.71-2.57-22.11,2.08-32.08,13.13h0c-9.09-.74-20.63,3.24-25.72,8.88h0c-20.42-1.68-37.63,4.56-48.47,17.54-11.27,13.49-14.36,32.57-8.71,53.7,7.15-7.9,16.56-15.37,28-22.18,11.06-6.59,23.54-12.31,37.07-16.98,13.54-4.67,27.45-8.07,41.38-10.11,9.65-1.41,19-2.11,27.95-2.11,4.42,0,8.74.17,12.95.52h-.04Z"/>
                    <path class="cls-7" d="M637,22.51c25.87-28.68,84.53-48.93,130.75-45.15v-.04c-11.31-.92-23.54-.45-36.32,1.41-12.35,1.8-24.7,4.82-36.71,8.96-12.01,4.15-23.07,9.22-32.89,15.06-10.17,6.06-18.53,12.68-24.86,19.72l.04.03h-.01Z"/>
                    <path class="cls-7" d="M676.4,32.31h.04c-6.91-25.87-5.89-45.01,2.74-51.22,5.16-3.72,12.68-2.52,21.75,3.48l.03-.04c-9.08-6-16.61-7.2-21.8-3.48-2.08,1.5-3.75,3.78-4.96,6.77-1.22,3.01-1.97,6.73-2.24,11.05-.28,4.4-.06,9.44.67,14.95.74,5.69,2.01,11.9,3.78,18.49h0Z"/>
                    <path class="cls-7" d="M729.28,14.06h.04c-3.76-14.08-7.37-25.67-10.43-33.51-2.98-7.64-5.36-11.54-6.89-11.31-.74.11-1.27,1.17-1.58,3.16-.32,2.04-.41,5.05-.27,8.96h.04c-.28-7.68.34-11.86,1.8-12.08,1.51-.22,3.87,3.68,6.84,11.29,3.06,7.85,6.67,19.42,10.43,33.49h.01Z"/>
                  </g>
                </g>
                <path class="cls-7" d="M720.42,170.64c-2.39-.1-5.47-.29-7.64-.5-3.68-.35-8.56-1.2-12.39-1.9-3.59-.66-8.14-2.07-11.8-3.2l-.45-.14c-1.99-.62-4.49-1.62-6.67-2.5-.87-.35-3.9-1.61-6.24-2.84-.25-.13-.5-.27-.77-.41-2.92-1.52-6.57-3.44-9.15-5.23-1.64-1.13-7.29-5.1-11.47-8.63-2.57-2.15-5.62-5.23-7.61-7.4-2.17-2.35-4.75-5.54-6.45-7.76-1.26-1.64-2.74-3.89-3.93-5.69l-.31-.48c-2.15-3.26-4.77-8.14-6.52-12.14-1.62-3.72-3.96-9.77-5.17-14.57-.76-2.95-1.61-6.96-2.13-10-.31-1.82-.55-4.14-.74-6.18-.06-.5-.1-.98-.14-1.44-.31-2.94-.29-6.78-.24-10.17.03-1.55.18-3.43.34-5.23.07-.81.13-1.57.18-2.27.24-3.31,1.02-7.51,1.69-10.33l.07-.29c.5-2.15,1.13-4.84,1.78-6.85,1.31-4.1,3.3-9.17,3.87-10.63,1.41-3.59,3.87-8.17,5.71-11.24,2.31-3.87,5.5-8.53,7.94-11.59.8-.99,2.82-3.5,4.47-5.3,1.68-1.83,4.13-4.46,6.11-6.24.38-.34.77-.7,1.19-1.08,1.4-1.29,2.99-2.73,4.34-3.79,3.05-2.42,6.77-5.17,9.5-7.03,1.61-1.09,3.57-2.34,5.01-3.15.38-.21.78-.45,1.22-.7,1.15-.66,2.45-1.4,3.5-1.97,1.19-.63,2.96-1.54,4.75-2.42.64-.31,2.88-1.4,4.7-2.15.42-.17.87-.36,1.34-.56,1.13-.48,2.29-.95,3.27-1.33,2.03-.78,3.55-1.34,4.66-1.71,4.06-1.33,7.12-2.25,9.36-2.85,4.5-1.19,7.82-1.82,9.61-2.15,1.37-.27,3.34-.59,5.01-.83,1.08-.15,2.43-.32,3.64-.46.49-.06.96-.11,1.4-.17,1.71-.21,3.93-.38,5.44-.45,2.18-.11,4.38-.2,5.86-.22,1.15-.01,2.55,0,3.89.03.63,0,1.23.01,1.78.03,1.19,0,2.6.11,3.99.21.31.03.62.04.91.07.31,0,.62.03.91.06,5.29.43,9.69,1.17,12.46,1.71,2.32.46,8.19,1.68,12.4,3.16.35.13.71.25,1.09.38,3.44,1.2,7.73,2.71,10.84,4.25.49.24,1.02.5,1.58.77,1.54.74,3.29,1.58,4.61,2.35,2.64,1.51,6.52,3.85,9.47,5.87,4.2,2.87,9.23,7.33,11.2,9.12,2.24,2.03,5.15,5.09,7.23,7.59l.15.18c1.86,2.24,4.39,5.3,5.97,7.79.39.62.83,1.27,1.29,1.99.98,1.5,1.99,3.03,2.74,4.38,1.64,2.92,3.47,6.28,4.57,8.92,1.08,2.6,3.72,9.23,5.17,14.57,1.38,5.15,2.39,12.03,2.74,14.75.41,3.03.63,7.17.55,10.29-.08,3.45-.35,10-1.17,14.96-.48,2.84-1.34,6.92-2.24,10.39-.39,1.52-1.02,3.43-1.57,5.09-.22.69-.43,1.33-.63,1.92-.84,2.66-2.34,6.18-4.56,10.77-.85,1.76-2.18,4.24-3.41,6.32-1.05,1.78-2.62,4.25-3.92,6.15-2.53,3.72-6.22,8.19-8.61,10.91-1.9,2.15-4.29,4.6-6.11,6.24-.25.22-.52.46-.78.71-1.3,1.19-2.77,2.52-3.99,3.54-2.27,1.9-4.1,3.34-5.45,4.29-.34.24-.71.5-1.09.77-1.22.87-2.59,1.85-3.69,2.59-1.13.76-3.3,2.17-5.01,3.15-.35.2-.73.42-1.13.66-1.22.71-2.6,1.51-3.72,2.08-2.1,1.08-6.11,3.09-9.27,4.47-1.5.66-3.44,1.44-4.66,1.92-1.3.5-3.19,1.23-4.66,1.71-2.73.88-6.49,2.03-9.36,2.85-1.71.49-3.9.98-4.77,1.16-1.82.39-3.65.77-4.88,1.01-1.02.2-2.25.39-3.45.57-.53.08-1.03.17-1.5.24-1.08.18-2.46.34-3.66.48-.49.06-.95.11-1.37.15-1.3.15-3.13.31-5.44.45-1.13.07-2.56.11-3.82.15-.55,0-1.08.04-1.55.06-.67.03-1.41.04-2.13.04-1.76,0-3.43-.06-4.03-.08h-.06ZM747.99-33.09c-.29-.01-.6-.04-.91-.06-9.31-.42-18.72,4.32-27.27,13.77,4.89.41,8.29,2.14,9.33,4.74.81,2.04.07,4.49-2.1,6.88-4.68,5.19-14.82,8.98-23.51,8.98-.77,0-1.51-.03-2.25-.08-4.92-.41-8.33-2.13-9.37-4.74-.81-2.04-.07-4.49,2.1-6.88,5.09-5.65,16.64-9.63,25.74-8.89,8.21-9.09,17.21-13.84,26.18-13.84h.08c-1.33-.1-2.68-.2-3.83-.2-.55,0-1.15-.01-1.78-.03-1.34-.03-2.73-.04-3.89-.03-1.48.03-3.66.1-5.85.22-1.51.08-3.73.24-5.44.45-.43.06-.91.11-1.4.17-1.2.14-2.56.31-3.64.46-1.66.24-3.64.57-5.01.83-1.78.34-5.09.96-9.59,2.15-2.24.59-5.3,1.52-9.36,2.85-1.1.36-2.63.92-4.66,1.71-.98.38-2.14.87-3.27,1.33-.48.2-.92.39-1.34.56-1.82.76-4.06,1.83-4.7,2.15-1.79.88-3.57,1.79-4.75,2.42-1.05.56-2.35,1.31-3.5,1.97-.42.24-.84.48-1.22.7-1.44.81-3.4,2.06-5.01,3.15-2.71,1.86-6.45,4.61-9.5,7.03-1.33,1.06-2.92,2.5-4.32,3.79-.42.38-.81.74-1.19,1.08-1.97,1.78-4.43,4.42-6.11,6.24-1.65,1.79-3.68,4.31-4.47,5.3-2.45,3.06-5.64,7.72-7.94,11.58-1.83,3.08-4.29,7.65-5.71,11.24-.57,1.45-2.56,6.54-3.87,10.63-.64,2.01-1.27,4.68-1.78,6.84l-.07.29c-.66,2.82-1.45,7.02-1.68,10.33-.04.7-.11,1.47-.18,2.27-.15,1.8-.31,3.68-.34,5.23-.06,3.38-.07,7.23.24,10.17.04.45.1.94.14,1.44.21,2.04.43,4.36.74,6.18.52,3.02,1.37,7.05,2.11,10,1.22,4.8,3.55,10.85,5.17,14.57,1.75,4,4.36,8.88,6.5,12.12l.31.48c1.19,1.8,2.67,4.06,3.93,5.69,1.71,2.21,4.28,5.41,6.45,7.76,1.99,2.15,5.03,5.23,7.61,7.38,4.18,3.51,9.84,7.48,11.47,8.63,2.57,1.79,6.22,3.69,9.15,5.22.27.14.52.27.77.41,2.34,1.22,5.36,2.48,6.24,2.84,2.18.89,4.68,1.89,6.67,2.5l.45.14c3.65,1.13,8.21,2.53,11.79,3.2,3.83.7,8.71,1.55,12.39,1.9,2.18.21,5.24.41,7.64.5.85.03,3.82.14,6.15.04.48,0,1.01-.04,1.55-.06,1.26-.04,2.68-.08,3.8-.15,2.31-.14,4.13-.29,5.44-.45.42-.06.88-.1,1.37-.15,1.22-.14,2.59-.29,3.66-.48.46-.07.98-.15,1.5-.24,1.19-.2,2.43-.39,3.45-.57,1.24-.22,3.06-.6,4.88-1.01.87-.2,3.08-.69,4.77-1.16,2.88-.81,6.63-1.96,9.36-2.85,1.45-.48,3.36-1.2,4.66-1.71,1.22-.48,3.16-1.26,4.64-1.92,3.16-1.38,7.16-3.4,9.27-4.47,1.12-.57,2.5-1.37,3.72-2.08.39-.22.77-.45,1.13-.66,1.71-.98,3.86-2.39,5.01-3.15,1.12-.74,2.49-1.72,3.69-2.59.38-.27.76-.53,1.09-.77,1.34-.95,3.17-2.41,5.45-4.29,1.22-1.01,2.68-2.35,3.99-3.54.28-.25.55-.49.78-.71,1.82-1.64,4.21-4.08,6.11-6.24,2.39-2.71,6.08-7.19,8.6-10.89,1.3-1.9,2.87-4.38,3.92-6.15,1.22-2.08,2.56-4.56,3.41-6.32,2.22-4.59,3.71-8.11,4.56-10.77.2-.6.41-1.24.63-1.92.55-1.66,1.17-3.55,1.57-5.09.88-3.47,1.76-7.55,2.22-10.39.83-4.95,1.09-11.49,1.17-14.96.08-3.12-.14-7.24-.55-10.28-.36-2.71-1.36-9.59-2.74-14.74-1.44-5.36-4.1-11.97-5.17-14.57-1.09-2.66-2.92-6-4.56-8.92-.76-1.33-1.76-2.88-2.74-4.38-.46-.7-.89-1.37-1.29-1.99-1.57-2.48-4.11-5.54-5.96-7.78l-.15-.18c-2.08-2.5-4.98-5.55-7.22-7.59-1.97-1.79-7.01-6.25-11.2-9.12-2.96-2.03-6.95-4.42-9.47-5.87-1.33-.77-3.08-1.61-4.61-2.35-.56-.27-1.09-.53-1.58-.77-3.1-1.54-7.4-3.03-10.84-4.25-.38-.13-.73-.25-1.09-.38-4.21-1.48-10.07-2.71-12.4-3.16-2.77-.55-7.17-1.27-12.45-1.71h.04ZM694.05-10.45c-2.15,2.38-2.89,4.81-2.08,6.84,1.03,2.59,4.43,4.31,9.33,4.71,9.09.74,20.63-3.24,25.72-8.88,2.15-2.38,2.89-4.81,2.08-6.84-1.03-2.59-4.43-4.31-9.33-4.71-9.09-.74-20.63,3.24-25.72,8.88Z"/>
              </g>
            </g>
            <path class="cls-7" d="M815.92,131.41c2.75-3.12,6.26-7.45,8.61-10.91,1.23-1.8,2.81-4.27,3.92-6.15,1.09-1.86,2.48-4.38,3.41-6.32,1.52-3.16,3.5-7.43,4.56-10.77.67-2.1,1.65-4.87,2.2-7.01.78-3.09,1.71-7.24,2.24-10.39.74-4.45,1.06-10.46,1.17-14.96.08-3.09-.14-7.22-.55-10.28-.6-4.46-1.58-10.4-2.74-14.74-1.2-4.47-3.4-10.28-5.17-14.57-1.15-2.78-3.09-6.31-4.56-8.92-1.1-1.97-2.81-4.45-4.01-6.36-1.61-2.55-4.2-5.65-6.13-7.97-2-2.42-4.89-5.48-7.22-7.59-3.22-2.91-7.62-6.67-11.2-9.12-2.75-1.89-6.57-4.21-9.47-5.87-1.8-1.03-4.32-2.2-6.19-3.12-3.44-1.69-8.31-3.36-11.93-4.63-3.62-1.27-8.64-2.42-12.4-3.16-2.77-.55-7.17-1.27-12.45-1.71-9.29-.76-19.1,3.65-28.23,13.76,9.12.74,12.36,5.93,7.26,11.59-5.1,5.65-16.63,9.63-25.73,8.88-9.12-.74-12.36-5.93-7.26-11.59,5.1-5.65,16.63-9.63,25.73-8.88,9.13-10.12,18.95-14.53,28.23-13.76h0c-1.73-.1-4.06-.32-5.8-.34-1.71-.01-3.97-.08-5.66-.06-1.76.03-4.1.13-5.85.22-1.64.08-3.82.25-5.44.45-1.51.18-3.54.42-5.05.63-1.51.22-3.51.55-5.01.83-1.78.34-5.09.96-9.61,2.15-2.84.76-6.57,1.94-9.36,2.85-1.41.46-3.27,1.16-4.66,1.71-1.4.55-3.23,1.33-4.61,1.89-1.43.59-3.3,1.47-4.7,2.15-1.44.7-3.34,1.66-4.75,2.42-1.43.77-3.3,1.86-4.71,2.66-1.54.88-3.54,2.15-5.01,3.15-2.92,2-6.71,4.84-9.5,7.03-1.73,1.37-3.87,3.4-5.52,4.87-1.94,1.75-4.34,4.31-6.11,6.24-1.41,1.54-3.17,3.68-4.47,5.3-2.63,3.29-5.79,7.97-7.94,11.59-1.93,3.26-4.32,7.72-5.71,11.24-1.24,3.16-2.82,7.4-3.87,10.63-.69,2.11-1.34,4.99-1.85,7.15-.71,3.06-1.47,7.2-1.68,10.33-.15,2.25-.48,5.24-.52,7.5-.04,3.05-.07,7.13.24,10.17.24,2.29.5,5.36.89,7.62.52,3.02,1.37,7.02,2.13,10,1.15,4.5,3.31,10.32,5.17,14.57,1.65,3.79,4.24,8.68,6.5,12.14,1.23,1.87,2.88,4.39,4.25,6.17,1.85,2.41,4.39,5.54,6.45,7.76,2.15,2.34,5.17,5.34,7.61,7.4,3.3,2.77,7.93,6.17,11.47,8.63,2.81,1.96,6.88,4.04,9.91,5.62,1.82.95,4.34,2.06,6.24,2.84,1.97.81,4.63,1.87,6.67,2.5,3.64,1.12,8.5,2.64,12.24,3.33,3.69.69,8.64,1.55,12.39,1.9,2.28.21,5.34.41,7.64.5,1.85.07,4.31.11,6.15.04,1.61-.06,3.76-.11,5.36-.21,1.64-.1,3.82-.25,5.44-.45,1.51-.18,3.54-.38,5.05-.63,1.48-.25,3.47-.55,4.95-.83,1.47-.27,3.43-.69,4.88-1.01,1.44-.32,3.36-.77,4.77-1.16,2.82-.8,6.57-1.94,9.36-2.85,1.41-.46,3.27-1.16,4.66-1.71,1.41-.55,3.27-1.3,4.66-1.92,2.82-1.24,6.52-3.08,9.27-4.47,1.48-.76,3.4-1.9,4.85-2.74,1.54-.88,3.52-2.17,5.01-3.15,1.45-.96,3.36-2.35,4.78-3.36,1.69-1.2,3.85-2.96,5.45-4.29,1.47-1.23,3.36-2.96,4.77-4.25,1.94-1.76,4.38-4.28,6.11-6.24v.03h-.01Z"/>
          </g>
          <g class="cls-10">
            <g class="cls-11">
              <g>
                <g class="cls-10">
                  <g>
                    <path class="cls-7" d="M710.75,169.69c-3.43-.83-6.75-2.38-9.91-4.6-3.19-2.24-6.19-5.17-8.95-8.73-2.81-3.61-5.37-7.89-7.61-12.68-2.31-4.94-4.28-10.47-5.89-16.46v-.03h.03c52.09,4.27,118.19-18.56,147.36-50.89l.03-.03v.04c2.87,10.68,3.5,20.85,1.89,30.23-.77,4.5-2.07,8.8-3.86,12.77-1.78,3.93-4.04,7.55-6.74,10.78-2.6,3.12-5.64,5.9-8.99,8.25-3.4,2.38-7.17,4.35-11.23,5.86-8.42,3.13-17.93,4.29-28.28,3.45-5.1,5.65-16.64,9.62-25.73,8.88-5.09,5.64-10.49,9.62-16.05,11.83-3.38,1.34-6.77,2.01-10.12,2.01-1.99,0-3.97-.24-5.93-.71h-.01ZM742.85,156.49c9.09.74,20.63-3.24,25.72-8.88h0c20.42,1.68,37.63-4.56,48.47-17.54,11.27-13.49,14.36-32.57,8.73-53.7-7.15,7.9-16.56,15.37-28,22.18-11.06,6.59-23.54,12.31-37.07,16.98-13.54,4.67-27.45,8.07-41.38,10.11-14.39,2.1-28.16,2.64-40.9,1.59,3.19,11.9,7.72,21.69,13.48,29.09,5.48,7.06,12,11.66,18.85,13.31,10.71,2.57,22.11-2.08,32.08-13.13h.03Z"/>
                    <path class="cls-7" d="M725.65,170.67c5.3,0,10.82-.42,16.53-1.24,8.22-1.2,16.46-3.22,24.46-5.97,8-2.77,15.38-6.14,21.91-10.04,6.77-4.04,12.35-8.46,16.57-13.13l-.04-.03c-17.24,19.1-56.31,32.6-87.11,30.08v.04c2.49.21,5.05.31,7.68.31h0Z"/>
                    <path class="cls-7" d="M706.37,160.3c7.96,0,16.25-.63,24.81-1.87,12.35-1.8,24.7-4.82,36.71-8.96,12.01-4.15,23.07-9.22,32.89-15.06,10.17-6.06,18.53-12.68,24.86-19.72l-.04-.03c-25.87,28.68-84.53,48.93-130.75,45.15v.04c3.73.31,7.58.46,11.51.46h.01Z"/>
                    <path class="cls-7" d="M750.49,167.94h.13c.74-.11,1.27-1.17,1.58-3.16.32-2.04.41-5.05.27-8.96h-.04c.28,7.68-.34,11.86-1.8,12.08h-.13c-1.51,0-3.83-3.89-6.71-11.29-3.06-7.85-6.67-19.42-10.43-33.49h-.04c3.76,14.08,7.37,25.67,10.43,33.51,2.89,7.41,5.23,11.31,6.77,11.31h-.01Z"/>
                  </g>
                  <g>
                    <path class="cls-7" d="M710.75,169.69c-3.43-.83-6.75-2.38-9.91-4.6-3.19-2.24-6.19-5.17-8.95-8.73-2.81-3.61-5.37-7.89-7.61-12.68-2.29-4.94-4.28-10.46-5.87-16.45-7.16-.59-13.84-1.68-19.87-3.23-5.87-1.51-11.16-3.47-15.72-5.85-4.47-2.32-8.29-5.03-11.31-8.08-3.01-3.02-5.24-6.36-6.67-9.94-2.27-5.73-2.45-11.97-.52-18.54,2-6.81,6.21-13.79,12.5-20.78l.03-.03v.04c11.47,42.83,55.77,80.55,98.76,84.07h.04l-.03.04c-2.15,2.38-2.89,4.81-2.08,6.84,1.03,2.59,4.43,4.31,9.33,4.71h.04l-.03.04c-5.09,5.65-10.5,9.63-16.07,11.84-3.38,1.34-6.77,2.01-10.12,2.01-1.99,0-3.97-.24-5.93-.71h0ZM733.47,151.8c-.81-2.03-.07-4.46,2.07-6.85-10.52-.87-21.27-3.76-31.95-8.59-5.15-2.32-10.25-5.1-15.17-8.25-4.88-3.12-9.61-6.63-14.08-10.43-9.08-7.72-16.92-16.5-23.33-26.07-6.61-9.9-11.4-20.23-14.21-30.71-12.32,13.66-16.56,27.6-11.94,39.24,5.9,14.89,25.42,24.75,53.54,27.06h.01c3.19,11.93,7.72,21.73,13.48,29.14,5.48,7.06,12,11.66,18.85,13.31,10.7,2.57,22.08-2.07,32.04-13.1-4.89-.41-8.29-2.14-9.33-4.74h.01Z"/>
                    <path class="cls-7" d="M717.98,170.36v-.04c-16.61-1.36-28.15-7.19-31.65-16-2.73-6.88-.21-15.12,7.08-23.2l-.04-.03c-3.72,4.13-6.21,8.26-7.4,12.29-1.15,3.89-1.03,7.58.31,10.96,3.5,8.82,15.05,14.66,31.69,16.03h.01Z"/>
                    <path class="cls-7" d="M694.86,159.84v-.04c-24.95-2.04-42.26-10.8-47.5-24.01-4.1-10.33-.32-22.7,10.63-34.83l-.04-.03c-5.59,6.19-9.31,12.39-11.09,18.43-1.72,5.83-1.57,11.37.46,16.46,5.24,13.23,22.58,22,47.55,24.04h0Z"/>
                    <path class="cls-7" d="M699.43,163.52c1.1,0,2.22-.03,3.34-.08,5.4-.25,10.89-1.13,16.35-2.6,5.59-1.51,11.22-3.66,16.67-6.39l-.03-.04c-21.27,10.64-44.22,11.93-62.93,3.5-17.21-7.75-29.6-22.88-34.88-42.62h-.04c5.29,19.77,17.68,34.92,34.9,42.67,4.53,2.04,9.37,3.54,14.36,4.46,3.99.73,8.08,1.1,12.24,1.1h.01Z"/>
                    <path class="cls-7" d="M711.4,152.6c7.29,0,14.57-.77,21.79-2.29v-.04c-7.29,1.54-14.57,2.28-21.73,2.28-41.32,0-78.65-24.54-88.41-61.05h-.04c2.81,10.5,7.89,20.18,15.12,28.78,3.47,4.13,7.44,7.98,11.77,11.45,4.29,3.44,9.01,6.53,14,9.19s10.29,4.91,15.77,6.68c5.52,1.79,11.29,3.13,17.1,3.96,4.87.69,9.76,1.03,14.64,1.03h-.01,0Z"/>
                  </g>
                  <g>
                    <path class="cls-7" d="M735.6,144.95c-10.53-.87-21.3-3.75-32-8.6-5.15-2.32-10.25-5.1-15.17-8.25-4.88-3.12-9.61-6.63-14.08-10.43-9.08-7.72-16.92-16.5-23.33-26.07-6.63-9.91-11.41-20.26-14.22-30.75h0v-.03c7.15-7.91,16.57-15.4,28.02-22.22,11.06-6.59,23.54-12.31,37.07-16.98,13.54-4.67,27.45-8.07,41.38-10.11,14.4-2.1,28.18-2.64,40.95-1.59h.01c2.81,10.5,4.38,21.97,4.66,34.07.28,11.69-.64,23.49-2.75,35.07-2.1,11.58-5.27,22.36-9.43,32.04-4.31,10.03-9.47,18.42-15.37,24.95h0c-9.09-.74-20.63,3.24-25.72,8.88h0l-.03.03h0ZM761.31,136.01c11.65-12.92,20.46-33.16,24.77-56.96,4.32-23.8,3.65-48.34-1.9-69.1-52.08-4.25-118.16,18.56-147.34,50.87,11.47,42.82,55.75,80.52,98.73,84.06,4.68-5.19,14.82-8.98,23.49-8.98.76,0,1.51.03,2.24.08h.01Z"/>
                    <path class="cls-7" d="M693.41,131.11c17.24-19.1,56.31-32.6,87.11-30.08v-.04c-7.54-.62-15.68-.29-24.21.94-8.22,1.2-16.46,3.22-24.46,5.97-8,2.77-15.38,6.14-21.91,10.04-6.77,4.04-12.35,8.46-16.57,13.13l.04.03h0Z"/>
                    <path class="cls-7" d="M657.99,100.94c25.87-28.68,84.53-48.93,130.75-45.15v-.04c-11.31-.92-23.54-.45-36.32,1.41-12.35,1.8-24.7,4.82-36.71,8.96-12.01,4.15-23.07,9.22-32.89,15.06-10.17,6.06-18.53,12.68-24.86,19.72l.04.03h-.01Z"/>
                    <path class="cls-7" d="M742.49,139.96l.03-.04c-12.1-8-25.63-23.59-38.11-43.92-12.47-20.33-22.42-42.96-27.97-63.71h-.04c2.81,10.5,6.73,21.47,11.65,32.61,4.75,10.77,10.25,21.23,16.32,31.11,6.07,9.89,12.42,18.7,18.85,26.18,6.67,7.75,13.16,13.72,19.27,17.76h0Z"/>
                    <path class="cls-7" d="M751.72,136.76h.04c-.91-24.82-10.98-79.88-22.44-122.71h-.04c11.45,42.86,21.52,97.9,22.44,122.71Z"/>
                  </g>
                  <g>
                    <path class="cls-7" d="M825.77,76.32c-11.45-42.83-55.75-80.55-98.74-84.07h-.04l.03-.04c2.15-2.38,2.89-4.81,2.08-6.84-1.03-2.59-4.43-4.31-9.33-4.71h-.04l.03-.04c5.09-5.65,10.5-9.63,16.07-11.84,5.38-2.14,10.78-2.57,16.05-1.31,3.43.83,6.75,2.38,9.91,4.6,3.19,2.24,6.19,5.17,8.95,8.73,2.81,3.61,5.37,7.89,7.61,12.68,2.29,4.94,4.28,10.46,5.87,16.45,7.16.59,13.84,1.68,19.87,3.23,5.87,1.51,11.16,3.47,15.72,5.85,4.47,2.32,8.29,5.03,11.31,8.08,3.01,3.02,5.24,6.36,6.67,9.94,2.27,5.73,2.45,11.97.52,18.54-2,6.81-6.21,13.79-12.5,20.78l-.03.03v-.04h-.01ZM719.81-19.38c4.89.41,8.29,2.14,9.33,4.74.81,2.03.07,4.46-2.07,6.85,10.52.87,21.27,3.76,31.95,8.59,5.15,2.32,10.25,5.1,15.17,8.25,4.88,3.12,9.61,6.63,14.08,10.43,9.08,7.72,16.92,16.5,23.33,26.07,6.63,9.9,11.4,20.23,14.21,30.71,12.32-13.66,16.56-27.6,11.94-39.24-5.9-14.89-25.42-24.75-53.54-27.06h-.01c-3.19-11.93-7.72-21.73-13.48-29.14-5.48-7.06-12-11.66-18.85-13.31-1.93-.46-3.87-.7-5.83-.7-8.92,0-18.04,4.75-26.21,13.79v.03h-.01Z"/>
                    <path class="cls-7" d="M769.24,6.08c3.72-4.13,6.21-8.26,7.4-12.29,1.15-3.89,1.03-7.58-.31-10.96-3.5-8.82-15.05-14.66-31.69-16.03v.04c16.61,1.36,28.15,7.19,31.65,16,2.73,6.88.21,15.12-7.08,23.2l.04.03h-.01Z"/>
                    <path class="cls-7" d="M824.65,21.86h.04c-5.29-19.77-17.68-34.92-34.9-42.67-4.53-2.04-9.37-3.54-14.36-4.46-5.03-.92-10.28-1.27-15.58-1.02-5.4.25-10.89,1.13-16.35,2.6-5.59,1.51-11.22,3.66-16.67,6.39l.03.04c21.27-10.64,44.22-11.93,62.93-3.5,17.21,7.75,29.6,22.88,34.88,42.62h-.01Z"/>
                    <path class="cls-7" d="M839.57,45.68h.04c-2.81-10.5-7.89-20.18-15.12-28.78-3.47-4.13-7.44-7.98-11.77-11.45-4.29-3.44-9.01-6.53-14-9.19s-10.29-4.91-15.77-6.68c-5.52-1.79-11.29-3.13-17.1-3.96-12.11-1.72-24.36-1.3-36.43,1.26v.04c7.29-1.54,14.57-2.28,21.73-2.28,41.32,0,78.65,24.54,88.41,61.05h.01Z"/>
                  </g>
                  <g>
                    <path class="cls-7" d="M678.4,127.23h-.01c-2.81-10.5-4.38-21.97-4.66-34.07-.28-11.69.64-23.49,2.75-35.07,2.1-11.58,5.27-22.36,9.43-32.04,4.31-10.03,9.47-18.42,15.37-24.95h0c9.09.74,20.63-3.24,25.72-8.88h0c10.53.87,21.3,3.75,32,8.6,5.15,2.32,10.25,5.1,15.17,8.25,4.88,3.12,9.61,6.63,14.08,10.43,9.08,7.72,16.92,16.5,23.33,26.07,6.63,9.91,11.41,20.26,14.22,30.75h0v.03c-7.15,7.91-16.57,15.4-28.02,22.22-11.06,6.59-23.54,12.31-37.07,16.98-13.54,4.67-27.45,8.07-41.38,10.11-9.65,1.41-19,2.11-27.95,2.11-4.43,0-8.75-.17-12.98-.52v-.03h.01ZM727.02-7.74c-5.1,5.65-16.64,9.62-25.73,8.88-11.65,12.92-20.46,33.16-24.77,56.96-4.32,23.8-3.65,48.34,1.9,69.1,52.08,4.27,118.16-18.56,147.34-50.87-11.47-42.82-55.75-80.52-98.73-84.06h-.01Z"/>
                    <path class="cls-7" d="M685.39,81.87c7.96,0,16.25-.63,24.81-1.87,12.35-1.8,24.7-4.82,36.71-8.96,12.01-4.15,23.07-9.22,32.89-15.06,10.17-6.06,18.53-12.68,24.86-19.72l-.04-.03c-25.87,28.68-84.53,48.93-130.75,45.15v.04c3.73.31,7.58.46,11.51.46h.01Z"/>
                    <path class="cls-7" d="M689.76,36.48c5.3,0,10.82-.42,16.53-1.24,8.22-1.2,16.46-3.22,24.46-5.97,8-2.77,15.38-6.14,21.91-10.04,6.77-4.04,12.35-8.46,16.57-13.13l-.04-.03c-17.24,19.1-56.31,32.6-87.11,30.08v.04c2.49.21,5.05.31,7.68.31h0Z"/>
                    <path class="cls-7" d="M786.16,104.86h.04c-2.81-10.5-6.73-21.47-11.65-32.61-4.75-10.77-10.25-21.23-16.32-31.11-6.07-9.89-12.42-18.7-18.85-26.18-6.67-7.75-13.16-13.72-19.27-17.76l-.03.04c12.1,8,25.63,23.59,38.11,43.92,12.47,20.33,22.42,42.96,27.97,63.71h0Z"/>
                    <path class="cls-7" d="M733.29,123.12h.04c-11.45-42.86-21.52-97.9-22.44-122.71h-.04c.91,24.82,10.98,79.88,22.44,122.71Z"/>
                  </g>
                  <g>
                    <path class="cls-7" d="M678.4,127.23c-7.17-.59-13.86-1.68-19.89-3.23-5.87-1.51-11.16-3.47-15.72-5.85-4.47-2.32-8.29-5.03-11.31-8.08-3.01-3.02-5.24-6.36-6.67-9.94-2.27-5.73-2.45-11.97-.52-18.54,2-6.8,6.19-13.79,12.49-20.77-2.85-10.68-3.48-20.85-1.87-30.22.77-4.5,2.07-8.8,3.86-12.77,1.78-3.93,4.04-7.55,6.74-10.78,2.6-3.12,5.64-5.9,8.99-8.25,3.4-2.38,7.17-4.35,11.23-5.86,8.42-3.13,17.94-4.29,28.28-3.45h.04l-.03.04c-2.15,2.38-2.89,4.81-2.08,6.84,1.03,2.59,4.43,4.31,9.33,4.71h.04l-.03.04c-11.66,12.92-20.46,33.16-24.78,56.97-4.32,23.81-3.65,48.36,1.9,69.11v.03h-.03.03ZM691.91-3.6c-.81-2.03-.07-4.46,2.07-6.85-20.39-1.66-37.59,4.57-48.41,17.55-11.27,13.51-14.36,32.6-8.71,53.74h0v.03c-12.35,13.68-16.6,27.62-11.98,39.27,5.9,14.89,25.41,24.75,53.52,27.06-2.8-10.49-4.36-21.93-4.66-34.02-.28-11.69.64-23.49,2.75-35.07,2.1-11.58,5.27-22.36,9.43-32.04,4.29-10,9.45-18.39,15.33-24.92-4.89-.41-8.29-2.14-9.33-4.74Z"/>
                    <path class="cls-7" d="M673.87,81.41v-.04c-24.95-2.04-42.26-10.8-47.5-24.01-4.1-10.33-.32-22.7,10.63-34.83l-.04-.03c-5.59,6.19-9.31,12.39-11.09,18.43-1.72,5.83-1.57,11.37.46,16.46,5.24,13.23,22.58,22,47.55,24.04h0Z"/>
                    <path class="cls-7" d="M682.08,36.17v-.04c-16.61-1.36-28.15-7.19-31.65-16-2.73-6.88-.21-15.12,7.08-23.2l-.04-.03c-3.72,4.13-6.21,8.26-7.4,12.29-1.15,3.89-1.03,7.58.31,10.96,3.5,8.82,15.05,14.66,31.69,16.03h.01Z"/>
                    <path class="cls-7" d="M637.92,115.3h.04c-11.45-42.85,13.79-94.99,56.27-116.25l-.03-.04c-10.4,5.2-19.96,12.32-28.37,21.12-4.04,4.24-7.8,8.85-11.17,13.72-3.34,4.82-6.32,9.94-8.87,15.2s-4.68,10.71-6.33,16.21c-1.68,5.55-2.88,11.19-3.58,16.75-1.45,11.59-.77,22.79,2.03,33.28h.01Z"/>
                    <path class="cls-7" d="M623,91.49h.04c-5.06-18.92-2.03-38.82,8.54-56.03,12.49-20.35,34.37-35.13,60.03-40.57v-.04c-6.57,1.38-12.96,3.4-18.98,5.97-5.86,2.5-11.44,5.55-16.57,9.08-5.03,3.47-9.69,7.4-13.82,11.7-4.1,4.27-7.71,8.92-10.71,13.83-5.17,8.43-8.57,17.48-10.07,26.88-1.57,9.73-1.05,19.55,1.52,29.17h0Z"/>
                  </g>
                  <g>
                    <path class="cls-7" d="M636.8,60.85c-2.85-10.68-3.5-20.85-1.87-30.23.77-4.5,2.07-8.8,3.86-12.77,1.78-3.93,4.04-7.55,6.74-10.78,2.6-3.12,5.64-5.9,8.99-8.25,3.4-2.38,7.17-4.35,11.23-5.86,8.42-3.13,17.93-4.29,28.28-3.45,5.1-5.65,16.64-9.62,25.73-8.88,5.09-5.64,10.49-9.62,16.05-11.83,5.38-2.14,10.78-2.57,16.05-1.31,3.43.83,6.75,2.38,9.91,4.6,3.19,2.24,6.19,5.17,8.95,8.73,2.81,3.61,5.37,7.89,7.61,12.68,2.31,4.94,4.28,10.47,5.89,16.46v.03h-.03c-4.21-.35-8.52-.52-12.88-.52-49.66,0-107.68,21.69-134.48,51.39l-.03.03v-.04h0ZM784.18,9.92c-3.19-11.9-7.72-21.69-13.48-29.09-5.48-7.06-12-11.66-18.85-13.31-10.71-2.57-22.11,2.08-32.08,13.13h0c-9.09-.74-20.63,3.24-25.72,8.88h0c-20.42-1.68-37.63,4.56-48.47,17.54-11.27,13.49-14.36,32.57-8.71,53.7,7.15-7.9,16.56-15.37,28-22.18,11.06-6.59,23.54-12.31,37.07-16.98,13.54-4.67,27.45-8.07,41.38-10.11,9.65-1.41,19-2.11,27.95-2.11,4.42,0,8.74.17,12.95.52h-.04Z"/>
                    <path class="cls-7" d="M637,22.51c25.87-28.68,84.53-48.93,130.75-45.15v-.04c-11.31-.92-23.54-.45-36.32,1.41-12.35,1.8-24.7,4.82-36.71,8.96-12.01,4.15-23.07,9.22-32.89,15.06-10.17,6.06-18.53,12.68-24.86,19.72l.04.03h-.01Z"/>
                    <path class="cls-7" d="M676.4,32.31h.04c-6.91-25.87-5.89-45.01,2.74-51.22,5.16-3.72,12.68-2.52,21.75,3.48l.03-.04c-9.08-6-16.61-7.2-21.8-3.48-2.08,1.5-3.75,3.78-4.96,6.77-1.22,3.01-1.97,6.73-2.24,11.05-.28,4.4-.06,9.44.67,14.95.74,5.69,2.01,11.9,3.78,18.49h0Z"/>
                    <path class="cls-7" d="M729.28,14.06h.04c-3.76-14.08-7.37-25.67-10.43-33.51-2.98-7.64-5.36-11.54-6.89-11.31-.74.11-1.27,1.17-1.58,3.16-.32,2.04-.41,5.05-.27,8.96h.04c-.28-7.68.34-11.86,1.8-12.08,1.51-.22,3.87,3.68,6.84,11.29,3.06,7.85,6.67,19.42,10.43,33.49h.01Z"/>
                  </g>
                </g>
                <path class="cls-7" d="M722.33,170.67h-1.4c-1.97,0-4.54-.2-6.31-.35-3.85-.35-8.85-1.1-12.38-1.69-1.43-.24-3.22-.67-4.78-1.05-.49-.13-.96-.24-1.4-.34-1.93-.45-4.59-1.23-7.91-2.34-2-.66-4.59-1.65-6.33-2.36-1.86-.76-4.38-1.89-6.24-2.81-2.78-1.37-4.95-2.53-6.4-3.44-.42-.27-.88-.55-1.37-.83-1.55-.94-3.31-2.01-4.64-2.96-2.98-2.14-6.71-5.02-9.3-7.19-4.24-3.55-8.96-8.89-10.31-10.45-2-2.31-4.77-5.79-6.52-8.61l-.11-.18c-1.57-2.53-3.72-5.99-5.16-8.63-1.12-2.06-2.45-4.82-3.29-6.88-1.24-3.02-3.5-8.77-4.6-13.28l-.1-.42c-.55-2.24-1.23-5.01-1.61-7.17-.48-2.78-1.06-6.89-1.3-10.03-.36-4.99-.36-10.94.03-15.13.27-2.91.8-6.89,1.33-9.91.32-1.89.92-4.34,1.41-6.29.08-.32.15-.63.22-.92.71-2.95,2.07-6.78,3.17-9.8.53-1.44,1.31-3.2,2-4.77.31-.69.59-1.31.84-1.92,1.66-3.87,4.43-8.42,5.24-9.72,2.1-3.38,5.34-8.15,8.12-11.44,2.1-2.46,5.23-5.9,8-8.75,1.24-1.29,2.98-2.82,4.39-4.07l.35-.31c2.17-1.93,5.1-4.2,6.28-5.09,1.61-1.22,3.83-2.8,5.55-3.93l.21-.14c1.37-.91,3.09-2.03,4.45-2.81.45-.25.95-.55,1.47-.85,1.12-.64,2.27-1.31,3.24-1.83,1.54-.83,3.54-1.85,4.96-2.55,1.58-.76,3.38-1.62,4.8-2.2.41-.17.85-.35,1.31-.55,1.08-.45,2.31-.96,3.29-1.34,2.03-.78,3.57-1.36,4.7-1.72.36-.13.77-.25,1.19-.39,1.15-.38,2.43-.81,3.47-1.12,1.41-.43,3.3-.96,4.71-1.34,2.67-.7,6.53-1.57,9.59-2.15,1.36-.25,3.3-.59,4.96-.83,1.06-.15,2.42-.32,3.61-.46.5-.06.99-.11,1.43-.17,1.71-.21,3.92-.38,5.3-.45,2.36-.13,4.24-.2,5.55-.22,1.26-.03,2.85,0,4.25.01.49,0,.96,0,1.4.01,1.94.01,4.53.21,6.31.35,1.52,0,3.43.28,5.09.52.39.06.76.11,1.1.15,1.3.18,2.87.45,4.36.71.67.11,1.3.22,1.87.32,1.31.22,2.88.6,4.41.96.64.15,1.26.31,1.83.43,3.83.87,8.82,2.64,12.24,3.9,1.62.6,3.97,1.61,6.31,2.7,1.89.88,4.38,2.15,6.18,3.15,3.59,1.99,8.21,4.95,11.47,7.38,1.69,1.27,5.96,4.52,8.77,7.37.45.46.95.94,1.47,1.45,1.24,1.22,2.64,2.6,3.68,3.78,2.07,2.35,4.89,5.55,6.68,8.19.35.52.73,1.06,1.15,1.65,1.03,1.48,2.21,3.17,3.03,4.57,1.47,2.48,3.54,6.13,4.89,8.99.92,1.93,2.2,4.8,3.03,7.05.83,2.25,2.35,6.5,3.16,9.75h-.03.03c1.22,4.82,2.35,10.94,2.8,15.21s.6,10.19.36,14.71c-.11,2.07-.34,5.12-.67,7.47-.41,2.85-1.15,6.53-1.73,9.48l-.08.41c-.57,2.88-1.75,6.85-2.99,10.11-2.2,5.78-4.15,10.24-5.83,13.26-1.57,2.82-3.93,6.75-5.9,9.76-1.03,1.59-2.66,3.8-4.14,5.64-.78.98-2.81,3.45-4.45,5.3-2.01,2.24-3.57,3.86-4.74,4.95-.45.41-.91.85-1.41,1.31-1.59,1.5-3.38,3.17-4.91,4.42-2.8,2.28-6.6,5.15-9.47,7.13-1.72,1.19-3.85,2.55-5.43,3.45-.34.2-.71.41-1.09.63-1.19.69-2.53,1.47-3.62,2.06-1.16.63-2.82,1.48-4.96,2.55-1.59.8-3.48,1.65-4.8,2.2-.41.17-.85.35-1.31.55-1.08.45-2.31.96-3.3,1.34-2,.77-3.57,1.36-4.7,1.72-2.7.88-6.5,2.1-9.36,2.85-1.44.38-3.36.85-4.77,1.16-1.1.25-2.52.53-3.76.78-.38.07-.74.15-1.08.21-1.19.24-2.85.52-4.96.83-1.06.15-2.42.32-3.61.46-.5.06-.99.11-1.44.17-1.43.18-3.51.35-5.3.45-1.57.08-3.86.2-5.55.22h-1.26c-.98,0-2.03,0-2.99-.03l.04.03h0ZM759.09-29.64c3.57,2.03,6.96,4.88,10.07,8.5,3.16,3.68,6.04,8.15,8.54,13.27,2.59,5.27,4.78,11.27,6.53,17.8,2.81,10.49,4.38,21.95,4.66,34.05.03,1.34.04,2.7.04,4.04,0,10.36-.94,20.78-2.8,31.03-2.1,11.58-5.27,22.36-9.43,32.04-4.29,10-9.45,18.39-15.33,24.92,4.89.41,8.29,2.14,9.33,4.74.81,2.04.07,4.49-2.1,6.88-4.68,5.19-14.82,8.98-23.51,8.98-.77,0-1.51-.03-2.25-.08-4.92-.41-8.33-2.13-9.37-4.74-.81-2.04-.07-4.49,2.1-6.88,5.09-5.65,16.64-9.63,25.74-8.89,11.65-12.92,20.46-33.16,24.77-56.96,1.87-10.35,2.81-20.84,2.81-31.09,0-13.34-1.58-26.29-4.71-38.02-.08-.32-.18-.66-.27-.98-3.44-12.42-8.54-22.81-14.8-30.08-6.21-7.23-13.52-11.37-21.13-12h0c-1.78-.14-4.35-.34-6.31-.35-.43,0-.91,0-1.4-.01-1.4-.01-2.99-.04-4.25-.01-1.31.03-3.19.1-5.55.22-1.38.07-3.59.24-5.3.45-.45.06-.92.11-1.43.17-1.19.14-2.55.31-3.61.46-1.66.24-3.61.56-4.96.83-3.06.59-6.92,1.45-9.59,2.15-1.41.38-3.3.91-4.71,1.34-1.03.31-2.32.74-3.47,1.12-.42.14-.83.27-1.19.39-1.12.36-2.66.94-4.68,1.72-.98.38-2.21.89-3.29,1.34-.46.2-.91.38-1.31.55-1.4.57-3.22,1.44-4.8,2.2-1.43.69-3.43,1.71-4.96,2.53-.96.52-2.13,1.19-3.24,1.83-.52.31-1.02.59-1.47.85-1.37.78-3.08,1.9-4.45,2.8l-.21.14c-1.72,1.12-3.94,2.7-5.54,3.92-1.16.88-4.1,3.16-6.26,5.08l-.35.31c-1.4,1.24-3.15,2.78-4.38,4.07-2.77,2.85-5.9,6.29-8,8.75-2.78,3.27-6.01,8.05-8.11,11.44-.81,1.3-3.58,5.85-5.24,9.72-.25.59-.55,1.23-.84,1.92-.7,1.57-1.48,3.33-2,4.77-1.1,3.02-2.46,6.85-3.17,9.8-.07.29-.15.6-.22.92-.49,1.96-1.08,4.4-1.41,6.29-.52,3.03-1.05,7.02-1.33,9.91-.39,4.2-.41,10.14-.03,15.13.24,3.13.83,7.23,1.3,10.03.36,2.17,1.05,4.94,1.61,7.17l.1.42c1.12,4.52,3.36,10.26,4.6,13.28.85,2.06,2.17,4.82,3.29,6.88,1.44,2.64,3.59,6.11,5.16,8.63l.11.18c1.75,2.82,4.52,6.29,6.52,8.6,1.34,1.55,6.06,6.89,10.29,10.43,2.57,2.15,6.32,5.05,9.3,7.17,1.33.95,3.09,2.01,4.64,2.96.49.29.94.57,1.37.83,1.47.91,3.62,2.06,6.4,3.44,1.87.92,4.38,2.06,6.24,2.81,1.75.71,4.34,1.71,6.33,2.36,3.33,1.09,5.99,1.87,7.91,2.34.43.1.91.21,1.4.34,1.57.38,3.36.81,4.78,1.05,3.52.59,8.53,1.34,12.38,1.69,1.75.15,4.34.34,6.31.35h1.4c1.4,0,2.99.04,4.25,0,1.71-.03,3.99-.14,5.55-.22,1.79-.1,3.87-.27,5.3-.45.45-.06.92-.11,1.44-.17,1.19-.14,2.55-.31,3.61-.46,2.1-.31,3.78-.59,4.96-.83.34-.07.7-.14,1.08-.21,1.24-.25,2.64-.53,3.76-.78,1.41-.32,3.33-.78,4.77-1.16,2.85-.76,6.67-1.97,9.36-2.85,1.12-.36,2.7-.95,4.68-1.72.98-.38,2.21-.89,3.3-1.34.46-.2.91-.38,1.31-.55,1.31-.55,3.2-1.4,4.8-2.2,2.14-1.06,3.8-1.92,4.96-2.53,1.09-.59,2.43-1.37,3.62-2.06.38-.22.76-.43,1.09-.63,1.55-.89,3.73-2.28,5.43-3.45,2.87-2,6.67-4.87,9.47-7.13,1.51-1.23,3.31-2.92,4.91-4.42.5-.46.96-.91,1.41-1.31,1.17-1.09,2.73-2.71,4.74-4.95,1.65-1.83,3.66-4.32,4.45-5.3,1.47-1.83,3.09-4.03,4.13-5.62,1.96-3.01,4.34-6.94,5.9-9.76,1.68-3.02,3.64-7.48,5.83-13.26,1.24-3.26,2.42-7.23,2.99-10.11l.08-.41c.59-2.95,1.33-6.63,1.73-9.48.34-2.35.57-5.4.67-7.47.24-4.52.08-10.42-.36-14.7s-1.58-10.39-2.8-15.21c-.83-3.23-2.34-7.5-3.16-9.73-.83-2.25-2.11-5.12-3.03-7.03-1.36-2.85-3.43-6.52-4.89-8.98-.84-1.4-2-3.08-3.03-4.57-.41-.59-.8-1.13-1.15-1.65-1.79-2.63-4.61-5.85-6.68-8.18-1.03-1.17-2.43-2.56-3.68-3.78-.52-.52-1.02-1.01-1.47-1.45-2.81-2.84-7.06-6.1-8.77-7.36-3.26-2.43-7.87-5.4-11.47-7.38-1.8-.99-4.28-2.25-6.18-3.15-2.34-1.09-4.68-2.1-6.31-2.7-3.41-1.26-8.4-3.03-12.24-3.9-.56-.13-1.17-.28-1.83-.43-1.51-.36-3.09-.74-4.41-.96-.57-.1-1.2-.21-1.87-.32-1.51-.27-3.06-.53-4.36-.71-.35-.04-.71-.1-1.1-.15-1.43-.21-3.03-.43-4.41-.5,3.57.39,7.08,1.55,10.42,3.44h-.08ZM735.61,144.95c-2.15,2.38-2.89,4.81-2.08,6.84,1.03,2.59,4.43,4.31,9.33,4.71,9.09.74,20.63-3.24,25.72-8.88,2.15-2.38,2.89-4.81,2.08-6.84-1.03-2.59-4.43-4.31-9.33-4.71-9.09-.74-20.63,3.24-25.72,8.88Z"/>
              </g>
            </g>
            <path class="cls-7" d="M838.72,39.89c-.76-2.98-2.1-6.85-3.16-9.73-.8-2.15-2.04-4.96-3.03-7.05-1.33-2.77-3.33-6.35-4.89-8.98-1.15-1.93-2.91-4.36-4.18-6.22-1.78-2.63-4.59-5.8-6.68-8.19-1.45-1.65-3.59-3.68-5.15-5.23-2.42-2.43-6.01-5.31-8.77-7.36-3.29-2.45-7.89-5.41-11.47-7.38-1.82-1.01-4.29-2.27-6.18-3.15-1.86-.87-4.38-1.99-6.31-2.7-3.62-1.33-8.47-3.05-12.24-3.9-1.87-.42-4.34-1.08-6.24-1.4-1.87-.31-4.36-.77-6.24-1.03-1.86-.25-4.34-.69-6.19-.69,15.24,1.24,29.09,16.4,36.22,43.07,11.48,42.92,1.23,99.37-22.88,126.09,9.12.74,12.36,5.93,7.26,11.59-5.1,5.65-16.63,9.63-25.73,8.88-9.12-.74-12.36-5.93-7.26-11.59,5.1-5.65,16.63-9.63,25.73-8.88,24.11-26.72,34.36-83.18,22.88-126.09-7.13-26.67-20.98-41.83-36.22-43.07-1.89-.15-4.41-.34-6.31-.35-1.69-.01-3.96-.06-5.65-.03-1.66.03-3.89.14-5.55.22-1.59.08-3.72.25-5.3.45-1.51.18-3.54.42-5.05.63-1.5.22-3.48.55-4.96.83-2.89.56-6.74,1.4-9.59,2.15-1.43.38-3.3.91-4.71,1.34-1.4.43-3.26,1.05-4.66,1.51-1.43.46-3.3,1.17-4.68,1.72-1.4.55-3.23,1.33-4.6,1.89-1.47.6-3.37,1.51-4.8,2.2-1.51.73-3.5,1.75-4.96,2.53-1.43.77-3.3,1.87-4.71,2.68-1.44.83-3.27,2.03-4.66,2.94-1.71,1.12-3.93,2.68-5.54,3.93-1.93,1.47-4.46,3.48-6.26,5.09-1.44,1.29-3.38,2.99-4.73,4.38-2.48,2.56-5.69,6.04-8,8.75-2.73,3.2-5.9,7.86-8.12,11.44-1.75,2.81-3.93,6.67-5.24,9.72-.87,2-2.1,4.63-2.85,6.68-1.06,2.91-2.45,6.8-3.17,9.8-.53,2.15-1.26,5.03-1.64,7.22-.52,2.96-1.05,6.92-1.33,9.91-.42,4.52-.36,10.6-.03,15.13.22,3.02.8,7.03,1.3,10.03.39,2.31,1.15,5.33,1.71,7.59,1.01,4.1,3.01,9.38,4.6,13.28.87,2.11,2.2,4.87,3.29,6.88,1.47,2.7,3.65,6.19,5.27,8.81,1.71,2.75,4.39,6.15,6.52,8.6,2.88,3.33,6.92,7.62,10.31,10.43,2.7,2.27,6.43,5.13,9.3,7.17,1.73,1.24,4.2,2.67,6,3.79,1.86,1.15,4.45,2.48,6.4,3.44,1.85.91,4.34,2.04,6.24,2.81,1.87.77,4.41,1.73,6.33,2.36,2.35.77,5.51,1.76,7.91,2.34,1.85.43,4.31,1.06,6.18,1.37,3.69.62,8.64,1.36,12.38,1.69,1.89.17,4.41.34,6.31.35,1.69,0,3.96.06,5.65.03,1.66-.03,3.89-.14,5.55-.22,1.59-.08,3.72-.25,5.3-.45,1.51-.18,3.54-.42,5.05-.63,1.5-.22,3.48-.53,4.96-.83,1.45-.29,3.38-.67,4.82-.99,1.44-.32,3.34-.8,4.77-1.16,2.84-.76,6.57-1.93,9.36-2.85,1.43-.46,3.3-1.17,4.68-1.72,1.4-.55,3.23-1.33,4.6-1.89,1.47-.6,3.37-1.5,4.8-2.2,1.5-.74,3.5-1.75,4.96-2.53,1.43-.77,3.3-1.87,4.71-2.68,1.68-.96,3.85-2.36,5.43-3.45,2.92-2.03,6.71-4.89,9.47-7.13,1.99-1.62,4.43-4,6.32-5.73,1.51-1.4,3.37-3.43,4.74-4.95,1.38-1.55,3.15-3.68,4.45-5.3,1.31-1.64,2.99-3.87,4.13-5.64,1.87-2.87,4.24-6.77,5.9-9.76,2.1-3.8,4.29-9.19,5.83-13.26,1.12-2.95,2.36-7.01,2.99-10.11.59-2.95,1.38-6.91,1.82-9.89.32-2.22.56-5.22.67-7.47.22-4.4.1-10.32-.36-14.7-.49-4.61-1.66-10.71-2.8-15.21h0Z"/>
          </g>
        </g>
      </g>
    </g>
  </g>
  <g>
    <path class="cls-8" d="M370.68,61.46l-5.98-23.78v25.77c0,1.43-.32,2.5-.95,3.21s-1.48,1.07-2.53,1.07-1.85-.35-2.5-1.06-.97-1.78-.97-3.22v-29.54c0-1.63.42-2.73,1.27-3.3s1.99-.85,3.44-.85h2.34c1.41,0,2.43.13,3.07.38s1.11.71,1.41,1.37.65,1.74,1.04,3.23l5.42,20.45,5.42-20.45c.39-1.49.74-2.57,1.04-3.23s.78-1.12,1.41-1.37,1.66-.38,3.07-.38h2.34c1.44,0,2.59.28,3.44.85s1.27,1.67,1.27,3.3v29.54c0,1.43-.32,2.5-.95,3.21s-1.49,1.07-2.56,1.07c-1,0-1.82-.36-2.47-1.07s-.97-1.78-.97-3.21v-25.77l-5.98,23.78c-.39,1.54-.71,2.68-.95,3.4s-.7,1.38-1.36,1.97-1.58.89-2.75.89c-.88,0-1.63-.19-2.24-.57s-1.09-.87-1.43-1.46-.61-1.25-.8-1.97-.39-1.47-.6-2.25Z"/>
    <path class="cls-8" d="M425.39,62.86l-1.78-4.69h-15.18l-1.78,4.79c-.7,1.87-1.29,3.13-1.78,3.78s-1.3.98-2.42.98c-.95,0-1.79-.35-2.52-1.04s-1.09-1.49-1.09-2.37c0-.51.08-1.04.25-1.58s.45-1.3.84-2.27l9.55-24.24c.27-.7.6-1.53.98-2.51s.79-1.79,1.22-2.43,1-1.17,1.71-1.57,1.57-.6,2.61-.6,1.93.2,2.64.6,1.27.91,1.71,1.54.8,1.3,1.09,2.02.67,1.68,1.13,2.89l9.75,24.09c.76,1.83,1.15,3.17,1.15,4s-.36,1.66-1.08,2.38-1.59,1.08-2.61,1.08c-.59,0-1.1-.11-1.53-.32s-.78-.5-1.07-.87-.6-.93-.93-1.68-.62-1.42-.85-2ZM410.42,52.5h11.15l-5.63-15.4-5.53,15.4Z"/>
    <path class="cls-8" d="M458.67,36h-8.25v27.12c0,1.56-.35,2.72-1.04,3.48s-1.6,1.13-2.7,1.13-2.03-.38-2.74-1.15-1.06-1.92-1.06-3.46v-27.12h-8.25c-1.29,0-2.25-.28-2.88-.85s-.94-1.32-.94-2.25.33-1.73.98-2.29,1.6-.84,2.84-.84h24.04c1.31,0,2.28.29,2.92.87s.95,1.33.95,2.27-.32,1.68-.97,2.25-1.61.85-2.9.85Z"/>
    <path class="cls-8" d="M491.62,35.59h-17.03v9.17h15.68c1.15,0,2.02.26,2.58.78s.85,1.2.85,2.05-.28,1.54-.84,2.08-1.43.8-2.6.8h-15.68v10.62h17.62c1.19,0,2.08.28,2.69.83s.9,1.29.9,2.2-.3,1.6-.9,2.15-1.5.83-2.69.83h-20.55c-1.65,0-2.83-.36-3.55-1.09s-1.08-1.91-1.08-3.54v-28.06c0-1.09.16-1.97.48-2.66s.83-1.19,1.52-1.5,1.57-.47,2.64-.47h19.96c1.21,0,2.1.27,2.69.8s.88,1.23.88,2.1-.29,1.59-.88,2.13-1.48.8-2.69.8Z"/>
    <path class="cls-8" d="M511.97,51.13h-2.65v11.99c0,1.58-.35,2.74-1.04,3.49s-1.6,1.12-2.72,1.12c-1.21,0-2.14-.39-2.8-1.17s-.99-1.93-.99-3.44v-28.72c0-1.63.36-2.81,1.09-3.54s1.91-1.09,3.54-1.09h12.3c1.7,0,3.15.07,4.35.22s2.29.44,3.26.88c1.17.49,2.21,1.2,3.11,2.11s1.58,1.98,2.05,3.2.7,2.5.7,3.86c0,2.78-.79,5.01-2.36,6.67s-3.95,2.84-7.14,3.54c1.34.71,2.62,1.77,3.84,3.16s2.31,2.87,3.27,4.44,1.71,2.99,2.24,4.25.8,2.13.8,2.61-.16.98-.47,1.46-.74.87-1.29,1.15-1.17.42-1.88.42c-.85,0-1.56-.2-2.14-.6s-1.07-.9-1.49-1.52-.98-1.51-1.69-2.7l-3.03-5.04c-1.09-1.85-2.06-3.26-2.92-4.23s-1.73-1.63-2.61-1.99-1.99-.53-3.34-.53ZM516.29,35.44h-6.98v10.26h6.77c1.82,0,3.34-.16,4.58-.47s2.19-.85,2.84-1.6.98-1.8.98-3.12c0-1.04-.26-1.95-.79-2.74s-1.26-1.38-2.19-1.77c-.88-.37-2.62-.56-5.22-.56Z"/>
    <path class="cls-8" d="M539.62,63.12v-29.41c0-1.53.35-2.67,1.04-3.44s1.6-1.15,2.7-1.15,2.06.38,2.76,1.13,1.06,1.91,1.06,3.45v29.41c0,1.54-.35,2.7-1.06,3.46s-1.63,1.15-2.76,1.15-1.98-.39-2.69-1.16-1.06-1.92-1.06-3.45Z"/>
    <path class="cls-8" d="M579.52,62.86l-1.78-4.69h-15.18l-1.78,4.79c-.7,1.87-1.29,3.13-1.78,3.78s-1.3.98-2.42.98c-.95,0-1.79-.35-2.52-1.04s-1.09-1.49-1.09-2.37c0-.51.08-1.04.25-1.58s.45-1.3.84-2.27l9.55-24.24c.27-.7.6-1.53.98-2.51s.79-1.79,1.22-2.43,1-1.17,1.71-1.57,1.57-.6,2.61-.6,1.93.2,2.64.6,1.27.91,1.71,1.54.8,1.3,1.09,2.02.67,1.68,1.13,2.89l9.75,24.09c.76,1.83,1.15,3.17,1.15,4s-.36,1.66-1.08,2.38-1.59,1.08-2.61,1.08c-.59,0-1.1-.11-1.53-.32s-.78-.5-1.07-.87-.6-.93-.93-1.68-.62-1.42-.85-2ZM564.54,52.5h11.15l-5.63-15.4-5.53,15.4Z"/>
    <path class="cls-8" d="M600.55,33.71v27.17h15.33c1.22,0,2.16.3,2.81.89s.98,1.34.98,2.24-.32,1.66-.97,2.23-1.59.85-2.83.85h-18.26c-1.65,0-2.83-.36-3.55-1.09s-1.08-1.91-1.08-3.54v-28.75c0-1.53.34-2.67,1.03-3.44s1.59-1.15,2.71-1.15,2.06.38,2.76,1.13,1.06,1.91,1.06,3.45Z"/>
  </g>
  <g>
    <path class="cls-8" d="M367.45,80.07l14.14,21.39v-21.59c0-1.4.3-2.46.9-3.16s1.42-1.05,2.44-1.05,1.89.35,2.5,1.05.92,1.75.92,3.16v28.55c0,3.19-1.32,4.78-3.96,4.78-.66,0-1.25-.09-1.78-.28s-1.02-.49-1.49-.9-.89-.9-1.29-1.45-.79-1.12-1.19-1.7l-13.79-21.15v21.27c0,1.39-.32,2.43-.97,3.14s-1.47,1.06-2.48,1.06-1.87-.36-2.5-1.08-.94-1.76-.94-3.13v-28.01c0-1.19.13-2.12.4-2.8.31-.74.83-1.35,1.56-1.82s1.51-.71,2.35-.71c.66,0,1.23.11,1.7.32s.88.5,1.24.87.72.83,1.09,1.41.76,1.18,1.15,1.81Z"/>
    <path class="cls-8" d="M412.37,75.66c3.76,0,7,.76,9.69,2.29s4.74,3.7,6.13,6.51c1.39,2.81,2.08,6.12,2.08,9.92,0,2.81-.38,5.36-1.14,7.65s-1.9,4.28-3.42,5.97-3.38,2.97-5.6,3.86-4.75,1.34-7.6,1.34-5.38-.46-7.63-1.37-4.12-2.21-5.62-3.88-2.64-3.67-3.4-6.02-1.15-4.88-1.15-7.6.4-5.35,1.2-7.68,1.96-4.31,3.48-5.94,3.37-2.88,5.55-3.75,4.66-1.3,7.43-1.3ZM422.82,94.33c0-2.66-.43-4.96-1.29-6.91s-2.08-3.42-3.68-4.42-3.42-1.5-5.48-1.5c-1.47,0-2.83.28-4.07.83s-2.32,1.36-3.22,2.41-1.61,2.41-2.13,4.05-.78,3.49-.78,5.53.26,3.93.78,5.6,1.25,3.05,2.2,4.15,2.04,1.92,3.27,2.46,2.58.82,4.05.82c1.88,0,3.61-.47,5.19-1.41s2.83-2.39,3.76-4.36,1.4-4.38,1.4-7.26Z"/>
    <path class="cls-8" d="M446.15,80.07l14.14,21.39v-21.59c0-1.4.3-2.46.9-3.16s1.42-1.05,2.44-1.05,1.89.35,2.5,1.05.92,1.75.92,3.16v28.55c0,3.19-1.32,4.78-3.96,4.78-.66,0-1.25-.09-1.78-.28s-1.02-.49-1.49-.9-.89-.9-1.29-1.45-.79-1.12-1.19-1.7l-13.79-21.15v21.27c0,1.39-.32,2.43-.97,3.14s-1.47,1.06-2.48,1.06-1.87-.36-2.5-1.08-.94-1.76-.94-3.13v-28.01c0-1.19.13-2.12.4-2.8.31-.74.83-1.35,1.56-1.82s1.51-.71,2.35-.71c.66,0,1.23.11,1.7.32s.88.5,1.24.87.72.83,1.09,1.41.76,1.18,1.15,1.81Z"/>
    <path class="cls-8" d="M515.36,101.69c0,2.2-.57,4.17-1.7,5.92s-2.79,3.12-4.96,4.11-4.76,1.49-7.75,1.49c-3.58,0-6.54-.68-8.86-2.03-1.65-.97-2.99-2.27-4.02-3.9s-1.55-3.21-1.55-4.74c0-.89.31-1.65.93-2.29s1.41-.95,2.36-.95c.78,0,1.43.25,1.97.74s.99,1.23,1.37,2.2c.46,1.16.96,2.12,1.5,2.9s1.29,1.42,2.27,1.92,2.25.76,3.84.76c2.18,0,3.95-.51,5.31-1.52s2.04-2.28,2.04-3.8c0-1.21-.37-2.18-1.1-2.93s-1.68-1.32-2.85-1.72-2.72-.82-4.67-1.26c-2.61-.61-4.79-1.32-6.55-2.14s-3.15-1.93-4.18-3.34-1.55-3.17-1.55-5.26.54-3.77,1.63-5.32,2.67-2.74,4.73-3.58,4.49-1.25,7.28-1.25c2.23,0,4.16.28,5.78.83s2.98,1.29,4.05,2.2,1.86,1.88,2.35,2.88.74,1.99.74,2.95c0,.87-.31,1.66-.93,2.36s-1.39,1.05-2.32,1.05c-.84,0-1.48-.21-1.92-.63s-.91-1.11-1.42-2.07c-.66-1.37-1.45-2.44-2.38-3.21s-2.41-1.15-4.46-1.15c-1.9,0-3.43.42-4.59,1.25s-1.75,1.84-1.75,3.01c0,.73.2,1.35.59,1.88s.94.98,1.63,1.36,1.39.68,2.1.89,1.88.53,3.52.94c2.05.48,3.9,1.01,5.56,1.58s3.07,1.28,4.23,2.1,2.07,1.87,2.72,3.13.98,2.81.98,4.64Z"/>
    <path class="cls-8" d="M529.69,108.72v-11.51l-8.86-13.74c-.78-1.24-1.32-2.2-1.65-2.9s-.48-1.3-.48-1.81c0-.84.33-1.57.98-2.18s1.46-.92,2.41-.92c1.01,0,1.77.28,2.29.85s1.3,1.7,2.34,3.4l6.78,11.02,6.86-11.02c.41-.68.76-1.25,1.04-1.71s.59-.9.93-1.3.71-.71,1.13-.93.92-.32,1.51-.32c.92,0,1.7.3,2.32.9s.93,1.3.93,2.09c0,.64-.16,1.29-.47,1.93s-.85,1.54-1.61,2.67l-9.09,13.94v11.51c0,1.5-.35,2.62-1.04,3.37s-1.58,1.11-2.65,1.11-1.97-.37-2.65-1.1-1.02-1.86-1.02-3.38Z"/>
    <path class="cls-8" d="M579.61,101.69c0,2.2-.57,4.17-1.7,5.92s-2.79,3.12-4.96,4.11-4.76,1.49-7.75,1.49c-3.58,0-6.54-.68-8.86-2.03-1.65-.97-2.99-2.27-4.02-3.9s-1.55-3.21-1.55-4.74c0-.89.31-1.65.93-2.29s1.41-.95,2.36-.95c.78,0,1.43.25,1.97.74s.99,1.23,1.37,2.2c.46,1.16.96,2.12,1.5,2.9s1.29,1.42,2.27,1.92,2.25.76,3.84.76c2.18,0,3.95-.51,5.31-1.52s2.04-2.28,2.04-3.8c0-1.21-.37-2.18-1.1-2.93s-1.68-1.32-2.85-1.72-2.72-.82-4.67-1.26c-2.61-.61-4.79-1.32-6.55-2.14s-3.15-1.93-4.18-3.34-1.55-3.17-1.55-5.26.54-3.77,1.63-5.32,2.67-2.74,4.73-3.58,4.49-1.25,7.28-1.25c2.23,0,4.16.28,5.78.83s2.98,1.29,4.05,2.2,1.86,1.88,2.35,2.88.74,1.99.74,2.95c0,.87-.31,1.66-.93,2.36s-1.39,1.05-2.32,1.05c-.84,0-1.48-.21-1.92-.63s-.91-1.11-1.42-2.07c-.66-1.37-1.45-2.44-2.38-3.21s-2.41-1.15-4.46-1.15c-1.9,0-3.43.42-4.59,1.25s-1.75,1.84-1.75,3.01c0,.73.2,1.35.59,1.88s.94.98,1.63,1.36,1.39.68,2.1.89,1.88.53,3.52.94c2.05.48,3.9,1.01,5.56,1.58s3.07,1.28,4.23,2.1,2.07,1.87,2.72,3.13.98,2.81.98,4.64Z"/>
    <path class="cls-8" d="M609.43,82.35h-8.02v26.37c0,1.52-.34,2.65-1.02,3.38s-1.55,1.1-2.62,1.1-1.98-.37-2.66-1.11-1.03-1.87-1.03-3.37v-26.37h-8.02c-1.25,0-2.19-.28-2.8-.83s-.92-1.28-.92-2.19.32-1.68.95-2.23,1.56-.82,2.76-.82h23.38c1.27,0,2.22.28,2.84.84s.93,1.3.93,2.2-.31,1.64-.94,2.19-1.57.83-2.82.83Z"/>
    <path class="cls-8" d="M641.47,81.95h-16.57v8.91h15.25c1.12,0,1.96.25,2.51.76s.83,1.17.83,1.99-.27,1.5-.82,2.02-1.39.78-2.53.78h-15.25v10.33h17.14c1.16,0,2.03.27,2.61.8s.88,1.25.88,2.14-.29,1.56-.88,2.09-1.46.8-2.61.8h-19.98c-1.6,0-2.75-.35-3.45-1.06s-1.05-1.86-1.05-3.44v-27.29c0-1.06.16-1.92.47-2.59s.8-1.16,1.47-1.46,1.52-.46,2.56-.46h19.41c1.17,0,2.04.26,2.61.78s.85,1.2.85,2.04-.28,1.55-.85,2.07-1.44.78-2.61.78Z"/>
    <path class="cls-8" d="M663.63,107.11l-5.82-23.13v25.06c0,1.39-.31,2.43-.93,3.12s-1.44,1.04-2.46,1.04-1.8-.34-2.43-1.03-.94-1.73-.94-3.13v-28.72c0-1.58.41-2.65,1.24-3.21s1.94-.83,3.34-.83h2.28c1.37,0,2.36.12,2.98.37s1.08.69,1.37,1.34.64,1.69,1.02,3.14l5.27,19.88,5.27-19.88c.38-1.45.72-2.5,1.02-3.14s.76-1.09,1.37-1.34,1.61-.37,2.98-.37h2.28c1.4,0,2.52.28,3.34.83s1.24,1.62,1.24,3.21v28.72c0,1.39-.31,2.43-.93,3.12s-1.45,1.04-2.49,1.04c-.97,0-1.77-.35-2.4-1.04s-.94-1.73-.94-3.12v-25.06l-5.82,23.13c-.38,1.5-.69,2.6-.93,3.31s-.68,1.34-1.32,1.92-1.54.87-2.67.87c-.86,0-1.58-.19-2.18-.56s-1.06-.85-1.39-1.42-.59-1.22-.78-1.92-.38-1.43-.58-2.19Z"/>
  </g>
</svg>